<svg width="236" height="68" viewBox="0 0 236 68" fill="none" xmlns="http://www.w3.org/2000/svg">
<path d="M66.4716 45.82L67.7916 45.74C67.9783 45.74 68.0716 45.84 68.0716 46.04C68.0716 46.08 68.0583 46.12 68.0316 46.16C68.0183 46.1867 67.985 46.24 67.9316 46.32C67.8916 46.4 67.8316 46.5 67.7516 46.62C67.685 46.7267 67.585 46.9067 67.4516 47.16C67.3316 47.4 67.1916 47.68 67.0316 48C66.725 48.64 66.265 49.7 65.6516 51.18C64.4383 54.22 63.4783 56.8533 62.7716 59.08C62.5983 59.6133 62.4783 59.9267 62.4116 60.02C62.3583 60.1133 62.2516 60.16 62.0916 60.16C61.2116 60.16 60.7716 59.9667 60.7716 59.58C60.7716 59.3667 61.005 58.88 61.4716 58.12C61.9516 57.3733 62.1916 56.7733 62.1916 56.32C62.1916 55.8667 61.805 54.2933 61.0316 51.6C60.2716 48.9067 59.7316 47.3733 59.4116 47C59.2783 46.8267 59.1316 46.7333 58.9716 46.72C58.825 46.6933 58.685 46.68 58.5516 46.68C58.4183 46.6667 58.325 46.6533 58.2716 46.64L58.2316 45.98C59.1116 45.86 59.7916 45.74 60.2716 45.62C60.765 45.4867 61.0383 45.42 61.0916 45.42C61.3183 45.42 61.4316 45.52 61.4316 45.72C61.4316 46.1067 61.9516 48.2 62.9916 52L63.5316 53.9C64.945 50.1267 65.6516 47.8533 65.6516 47.08C65.6516 46.72 65.5316 46.54 65.2916 46.54C65.0516 46.54 64.9316 46.4067 64.9316 46.14C64.9316 45.9 65.1583 45.78 65.6116 45.78L66.4716 45.82ZM68.4554 54.82C68.1754 54.4333 67.9421 53.9 67.7554 53.22C67.5687 52.5267 67.4754 51.66 67.4754 50.62C67.4754 49.5667 67.7487 48.5933 68.2954 47.7C68.6554 47.14 69.2821 46.6333 70.1754 46.18C71.0687 45.7133 71.8087 45.48 72.3954 45.48C73.5821 45.48 74.5954 45.86 75.4354 46.62C76.2754 47.38 76.6954 48.5667 76.6954 50.18C76.6954 51.78 76.4021 53.0267 75.8154 53.92C75.0287 54.9733 74.2621 55.6667 73.5154 56C73.0087 56.2267 72.4821 56.34 71.9354 56.34C71.3887 56.34 70.9421 56.3 70.5954 56.22C70.2487 56.1533 69.8754 56 69.4754 55.76C69.0887 55.52 68.7487 55.2067 68.4554 54.82ZM69.3754 50.88C69.3754 52.32 69.6487 53.3533 70.1954 53.98C70.7554 54.6067 71.5621 54.92 72.6154 54.92C73.0154 54.92 73.3087 54.8867 73.4954 54.82C74.4154 54.46 74.8754 53.0733 74.8754 50.66C74.8754 49.5267 74.7221 48.7 74.4154 48.18C74.1221 47.6467 73.6087 47.2667 72.8754 47.04C72.5021 46.9467 72.1621 46.9 71.8554 46.9C71.5487 46.9 71.3221 46.9067 71.1754 46.92C71.0421 46.9333 70.8621 46.9733 70.6354 47.04C70.4087 47.1067 70.2354 47.22 70.1154 47.38C69.9954 47.5267 69.8687 47.7333 69.7354 48C69.4954 48.48 69.3754 49.44 69.3754 50.88ZM83.8274 53.04L83.8674 48.3C83.8674 47.34 83.7808 46.8133 83.6074 46.72C83.5141 46.6667 83.3474 46.64 83.1074 46.64H82.4674L82.4274 45.98C83.4674 45.8867 84.2141 45.7867 84.6674 45.68C85.1341 45.56 85.3874 45.5 85.4274 45.5C85.6674 45.5 85.7874 45.6 85.7874 45.8C85.7874 47.48 85.7608 49.1133 85.7074 50.7C85.6541 52.2867 85.6274 53.2267 85.6274 53.52C85.6274 53.8133 85.7741 54.2 86.0674 54.68C86.3741 55.1467 86.5274 55.42 86.5274 55.5C86.5274 55.5667 86.4674 55.62 86.3474 55.66C85.4141 55.9667 84.8874 56.12 84.7674 56.12C84.6608 56.12 84.5474 56.0267 84.4274 55.84C84.3208 55.64 84.2208 55.4 84.1274 55.12C84.0341 54.84 83.9808 54.6933 83.9674 54.68C83.1674 55.24 82.4341 55.6333 81.7674 55.86C81.1008 56.0733 80.5608 56.18 80.1474 56.18C79.7474 56.18 79.3208 55.9867 78.8674 55.6C78.4274 55.2133 78.1341 54.7333 77.9874 54.16C77.8541 53.7333 77.7874 52.9067 77.7874 51.68V48.46C77.7874 48.1267 77.7274 47.6667 77.6074 47.08C77.5808 46.9867 77.4941 46.9067 77.3474 46.84C77.2008 46.7733 77.0874 46.74 77.0074 46.74C76.9274 46.7267 76.7541 46.72 76.4874 46.72L76.4474 46.04C77.3008 45.9467 77.9741 45.8333 78.4674 45.7C78.9608 45.5667 79.2341 45.5 79.2874 45.5C79.5274 45.5 79.6474 45.6 79.6474 45.8L79.5674 51.64C79.5674 52.6267 79.6208 53.28 79.7274 53.6C79.8474 53.92 80.0274 54.1667 80.2674 54.34C80.5208 54.5133 80.7674 54.6 81.0074 54.6C81.2608 54.6 81.6074 54.5533 82.0474 54.46C82.5008 54.3667 82.8674 54.2467 83.1474 54.1C83.4408 53.94 83.6274 53.8067 83.7074 53.7C83.7874 53.58 83.8274 53.36 83.8274 53.04ZM89.8007 48.76L89.7807 54.18C89.7807 54.5933 89.9007 54.8667 90.1407 55C90.3807 55.12 90.7407 55.2133 91.2207 55.28C91.714 55.3467 91.9807 55.38 92.0207 55.38V56H86.4207V55.32C86.7407 55.28 86.954 55.26 87.0607 55.26C87.1674 55.2467 87.3007 55.2067 87.4607 55.14C87.634 55.06 87.734 54.9933 87.7607 54.94C87.7874 54.8733 87.8274 54.74 87.8807 54.54C87.934 54.34 87.9607 54.14 87.9607 53.94V52.36C87.9607 49.68 87.914 48.1067 87.8207 47.64C87.714 47.12 87.3274 46.86 86.6607 46.86L86.6207 46.1C87.154 46.0467 87.7007 45.92 88.2607 45.72C88.8207 45.52 89.1807 45.42 89.3407 45.42C89.5007 45.42 89.614 45.5 89.6807 45.66C89.7474 45.8067 89.7807 46.08 89.7807 46.48L89.8007 47.24C90.974 46.1067 91.9007 45.54 92.5807 45.54C93.074 45.54 93.414 45.6 93.6007 45.72C93.7874 45.84 93.8807 46.06 93.8807 46.38C93.8807 46.4867 93.774 47.2067 93.5607 48.54H92.8407C92.774 47.54 92.434 47.04 91.8207 47.04C91.474 47.04 91.0474 47.2 90.5407 47.52C90.0474 47.8267 89.8007 48.24 89.8007 48.76ZM98.2141 54.48L98.2341 45.12C98.2341 43.1867 98.1675 42.0533 98.0341 41.72C97.9008 41.3733 97.4808 41.2 96.7741 41.2L96.7341 40.54C97.7208 40.4467 98.4541 40.3467 98.9341 40.24C99.4275 40.12 99.6941 40.06 99.7341 40.06C99.9608 40.06 100.074 40.16 100.074 40.36L100.054 41.66L100.034 46.82C101.581 45.9533 102.834 45.52 103.794 45.52C104.767 45.52 105.401 45.84 105.694 46.48C105.987 47.1067 106.134 48.14 106.134 49.58L106.074 53.82C106.074 54.46 106.121 54.86 106.214 55.02C106.321 55.1667 106.614 55.2667 107.094 55.32V56H103.294V55.32C103.774 55.2133 104.061 55.0667 104.154 54.88C104.247 54.6933 104.294 54.1933 104.294 53.38V49.8C104.294 48.6 104.201 47.8333 104.014 47.5C103.841 47.1533 103.421 46.98 102.754 46.98C102.354 46.98 101.867 47.0667 101.294 47.24C100.734 47.4133 100.314 47.5933 100.034 47.78C99.9941 49.3267 99.9741 51.26 99.9741 53.58C99.9741 54.3267 100.027 54.8 100.134 55C100.254 55.1867 100.581 55.2933 101.114 55.32V56H97.0341V55.32C97.4741 55.2933 97.7808 55.2133 97.9541 55.08C98.1275 54.9467 98.2141 54.7467 98.2141 54.48ZM107.983 54.82C107.703 54.4333 107.469 53.9 107.283 53.22C107.096 52.5267 107.003 51.66 107.003 50.62C107.003 49.5667 107.276 48.5933 107.823 47.7C108.183 47.14 108.809 46.6333 109.703 46.18C110.596 45.7133 111.336 45.48 111.923 45.48C113.109 45.48 114.123 45.86 114.963 46.62C115.803 47.38 116.223 48.5667 116.223 50.18C116.223 51.78 115.929 53.0267 115.343 53.92C114.556 54.9733 113.789 55.6667 113.043 56C112.536 56.2267 112.009 56.34 111.463 56.34C110.916 56.34 110.469 56.3 110.123 56.22C109.776 56.1533 109.403 56 109.003 55.76C108.616 55.52 108.276 55.2067 107.983 54.82ZM108.903 50.88C108.903 52.32 109.176 53.3533 109.723 53.98C110.283 54.6067 111.089 54.92 112.143 54.92C112.543 54.92 112.836 54.8867 113.023 54.82C113.943 54.46 114.403 53.0733 114.403 50.66C114.403 49.5267 114.249 48.7 113.943 48.18C113.649 47.6467 113.136 47.2667 112.403 47.04C112.029 46.9467 111.689 46.9 111.383 46.9C111.076 46.9 110.849 46.9067 110.703 46.92C110.569 46.9333 110.389 46.9733 110.163 47.04C109.936 47.1067 109.763 47.22 109.643 47.38C109.523 47.5267 109.396 47.7333 109.263 48C109.023 48.48 108.903 49.44 108.903 50.88ZM123.355 53.04L123.395 48.3C123.395 47.34 123.308 46.8133 123.135 46.72C123.041 46.6667 122.875 46.64 122.635 46.64H121.995L121.955 45.98C122.995 45.8867 123.741 45.7867 124.195 45.68C124.661 45.56 124.915 45.5 124.955 45.5C125.195 45.5 125.315 45.6 125.315 45.8C125.315 47.48 125.288 49.1133 125.235 50.7C125.181 52.2867 125.155 53.2267 125.155 53.52C125.155 53.8133 125.301 54.2 125.595 54.68C125.901 55.1467 126.055 55.42 126.055 55.5C126.055 55.5667 125.995 55.62 125.875 55.66C124.941 55.9667 124.415 56.12 124.295 56.12C124.188 56.12 124.075 56.0267 123.955 55.84C123.848 55.64 123.748 55.4 123.655 55.12C123.561 54.84 123.508 54.6933 123.495 54.68C122.695 55.24 121.961 55.6333 121.295 55.86C120.628 56.0733 120.088 56.18 119.675 56.18C119.275 56.18 118.848 55.9867 118.395 55.6C117.955 55.2133 117.661 54.7333 117.515 54.16C117.381 53.7333 117.315 52.9067 117.315 51.68V48.46C117.315 48.1267 117.255 47.6667 117.135 47.08C117.108 46.9867 117.021 46.9067 116.875 46.84C116.728 46.7733 116.615 46.74 116.535 46.74C116.455 46.7267 116.281 46.72 116.015 46.72L115.975 46.04C116.828 45.9467 117.501 45.8333 117.995 45.7C118.488 45.5667 118.761 45.5 118.815 45.5C119.055 45.5 119.175 45.6 119.175 45.8L119.095 51.64C119.095 52.6267 119.148 53.28 119.255 53.6C119.375 53.92 119.555 54.1667 119.795 54.34C120.048 54.5133 120.295 54.6 120.535 54.6C120.788 54.6 121.135 54.5533 121.575 54.46C122.028 54.3667 122.395 54.2467 122.675 54.1C122.968 53.94 123.155 53.8067 123.235 53.7C123.315 53.58 123.355 53.36 123.355 53.04ZM128.088 51.36C127.608 51.1733 127.195 50.8733 126.848 50.46C126.515 50.0467 126.348 49.5133 126.348 48.86C126.348 48.2067 126.461 47.7067 126.688 47.36C127.168 46.5867 127.621 46.0867 128.048 45.86C128.475 45.62 129.021 45.5 129.688 45.5C130.355 45.5 130.955 45.6133 131.488 45.84C131.635 45.8933 131.741 45.9467 131.808 46C132.048 46.1467 132.168 46.42 132.168 46.82C132.168 46.86 132.161 46.96 132.148 47.12C132.121 47.4667 132.108 48.02 132.108 48.78H131.368C131.355 48.6067 131.295 48.3533 131.188 48.02C131.095 47.6867 130.988 47.4333 130.868 47.26C130.601 46.8733 130.101 46.68 129.368 46.68C128.661 46.68 128.195 46.8533 127.968 47.2C127.781 47.48 127.688 47.7933 127.688 48.14C127.688 48.4733 127.855 48.7733 128.188 49.04C128.521 49.2933 128.928 49.5 129.408 49.66C129.888 49.82 130.368 50 130.848 50.2C131.341 50.3867 131.755 50.7067 132.088 51.16C132.421 51.6 132.588 52.1667 132.588 52.86C132.588 53.5533 132.488 54.0667 132.288 54.4C131.928 54.9733 131.501 55.4533 131.008 55.84C130.808 55.9867 130.495 56.1067 130.068 56.2C129.641 56.2933 129.321 56.34 129.108 56.34C127.681 56.34 126.828 56.1 126.548 55.62C126.441 55.4467 126.388 55.22 126.388 54.94C126.388 53.86 126.415 53.2 126.468 52.96C126.535 52.7067 126.675 52.58 126.888 52.58C127.115 52.58 127.255 52.6733 127.308 52.86C127.361 53.0467 127.408 53.3067 127.448 53.64C127.595 54.5867 128.248 55.06 129.408 55.06C129.995 55.06 130.455 54.9267 130.788 54.66C131.121 54.3933 131.288 54.0333 131.288 53.58C131.288 53.1133 131.115 52.7467 130.768 52.48C130.435 52.2133 130.021 52.0067 129.528 51.86C129.048 51.7 128.568 51.5333 128.088 51.36ZM133.022 48.02C133.236 47.5267 133.749 46.9933 134.562 46.42C135.376 45.8333 136.109 45.54 136.762 45.54C137.429 45.54 137.996 45.6133 138.462 45.76C138.929 45.9067 139.296 46.1267 139.562 46.42C139.829 46.7 140.042 46.98 140.202 47.26C140.376 47.5267 140.489 47.8667 140.542 48.28C140.649 48.9467 140.702 49.4533 140.702 49.8V50.38C140.276 50.6467 139.576 50.78 138.602 50.78H134.502C134.502 52.2067 134.609 53.12 134.822 53.52C135.142 54.1067 135.542 54.4733 136.022 54.62C136.329 54.7133 136.689 54.76 137.102 54.76C138.262 54.76 139.322 54.2867 140.282 53.34L140.722 53.8C140.669 53.8533 140.542 53.9867 140.342 54.2C140.142 54.4 140.009 54.5333 139.942 54.6C139.876 54.6667 139.749 54.7933 139.562 54.98C139.376 55.1533 139.229 55.2733 139.122 55.34C139.029 55.4067 138.889 55.5067 138.702 55.64C138.529 55.7733 138.376 55.8667 138.242 55.92C138.122 55.9733 137.969 56.04 137.782 56.12C137.476 56.24 137.116 56.3 136.702 56.3C135.902 56.3 135.216 56.1467 134.642 55.84C134.082 55.52 133.662 55.0933 133.382 54.56C132.849 53.5867 132.582 52.4267 132.582 51.08C132.582 49.7333 132.729 48.7133 133.022 48.02ZM134.542 49.88H135.682C137.456 49.88 138.509 49.76 138.842 49.52C138.842 48.9467 138.749 48.4533 138.562 48.04C138.216 47.24 137.602 46.84 136.722 46.84C135.842 46.84 135.256 47.0667 134.962 47.52C134.682 47.96 134.542 48.7467 134.542 49.88ZM146.623 43.9C146.41 43.9 146.17 43.74 145.903 43.42C145.636 43.0867 145.503 42.8467 145.503 42.7C145.503 42.54 145.61 42.26 145.823 41.86C146.05 41.46 146.283 41.26 146.523 41.26C146.763 41.26 147.03 41.3867 147.323 41.64C147.616 41.88 147.763 42.16 147.763 42.48C147.763 42.8 147.623 43.12 147.343 43.44C147.076 43.7467 146.836 43.9 146.623 43.9ZM144.323 56V55.32C145.003 55.2667 145.43 55.18 145.603 55.06C145.776 54.9267 145.863 54.66 145.863 54.26V50.1C145.863 48.94 145.83 48.1333 145.763 47.68C145.71 47.2267 145.616 46.94 145.483 46.82C145.35 46.6867 145.096 46.62 144.723 46.62H144.423L144.383 45.96C145.37 45.8667 146.103 45.7667 146.583 45.66C147.076 45.54 147.343 45.48 147.383 45.48C147.61 45.48 147.723 45.5867 147.723 45.8C147.723 45.96 147.716 46.4 147.703 47.12C147.65 49.9733 147.623 52.4333 147.623 54.5C147.623 54.7667 147.73 54.9667 147.943 55.1C148.156 55.22 148.496 55.2933 148.963 55.32V56H144.323ZM148.808 46.14C149.354 46.0867 149.901 45.96 150.448 45.76C151.008 45.56 151.368 45.46 151.528 45.46C151.701 45.46 151.821 45.54 151.888 45.7C151.954 45.8467 151.988 46.12 151.988 46.52V46.8C153.521 45.9333 154.721 45.5 155.588 45.5C156.468 45.5 157.074 45.74 157.408 46.22C157.741 46.6867 157.908 47.2267 157.908 47.84V54.52C157.908 54.8133 157.968 55.0133 158.088 55.12C158.221 55.2267 158.514 55.2933 158.968 55.32V56H154.888V55.32C155.394 55.28 155.708 55.2 155.828 55.08C155.961 54.96 156.028 54.7467 156.028 54.44V48.1C156.028 47.7667 155.921 47.5133 155.708 47.34C155.508 47.1533 155.294 47.0467 155.068 47.02C154.854 46.98 154.601 46.96 154.308 46.96C154.028 46.96 153.648 47.04 153.168 47.2C152.688 47.3467 152.314 47.5133 152.048 47.7C152.034 48.4867 152.014 49.3067 151.988 50.16C151.934 51.8933 151.908 53.0933 151.908 53.76C151.908 54.4133 151.974 54.8333 152.108 55.02C152.241 55.1933 152.568 55.2933 153.088 55.32V56H148.888V55.32C149.288 55.2667 149.568 55.1933 149.728 55.1C149.901 54.9933 150.008 54.84 150.048 54.64C150.101 54.2933 150.128 53.8933 150.128 53.44C150.128 52.9733 150.108 51.8933 150.068 50.2C150.028 48.4933 150.001 47.6133 149.988 47.56C149.974 47.4933 149.954 47.4333 149.928 47.38C149.914 47.3133 149.888 47.26 149.848 47.22C149.821 47.18 149.794 47.1467 149.768 47.12C149.754 47.0933 149.721 47.0667 149.668 47.04C149.614 47.0133 149.574 47 149.548 47C149.521 46.9867 149.468 46.9733 149.388 46.96C149.321 46.9467 149.274 46.9333 149.248 46.92C149.168 46.9067 149.041 46.9 148.868 46.9L148.808 46.14ZM170.082 45.82L171.402 45.74C171.588 45.74 171.682 45.84 171.682 46.04C171.682 46.08 171.668 46.12 171.642 46.16C171.628 46.1867 171.595 46.24 171.542 46.32C171.502 46.4 171.442 46.5 171.362 46.62C171.295 46.7267 171.195 46.9067 171.062 47.16C170.942 47.4 170.802 47.68 170.642 48C170.335 48.64 169.875 49.7 169.262 51.18C168.048 54.22 167.088 56.8533 166.382 59.08C166.208 59.6133 166.088 59.9267 166.022 60.02C165.968 60.1133 165.862 60.16 165.702 60.16C164.822 60.16 164.382 59.9667 164.382 59.58C164.382 59.3667 164.615 58.88 165.082 58.12C165.562 57.3733 165.802 56.7733 165.802 56.32C165.802 55.8667 165.415 54.2933 164.642 51.6C163.882 48.9067 163.342 47.3733 163.022 47C162.888 46.8267 162.742 46.7333 162.582 46.72C162.435 46.6933 162.295 46.68 162.162 46.68C162.028 46.6667 161.935 46.6533 161.882 46.64L161.842 45.98C162.722 45.86 163.402 45.74 163.882 45.62C164.375 45.4867 164.648 45.42 164.702 45.42C164.928 45.42 165.042 45.52 165.042 45.72C165.042 46.1067 165.562 48.2 166.602 52L167.142 53.9C168.555 50.1267 169.262 47.8533 169.262 47.08C169.262 46.72 169.142 46.54 168.902 46.54C168.662 46.54 168.542 46.4067 168.542 46.14C168.542 45.9 168.768 45.78 169.222 45.78L170.082 45.82ZM172.066 54.82C171.786 54.4333 171.552 53.9 171.366 53.22C171.179 52.5267 171.086 51.66 171.086 50.62C171.086 49.5667 171.359 48.5933 171.906 47.7C172.266 47.14 172.892 46.6333 173.786 46.18C174.679 45.7133 175.419 45.48 176.006 45.48C177.192 45.48 178.206 45.86 179.046 46.62C179.886 47.38 180.306 48.5667 180.306 50.18C180.306 51.78 180.012 53.0267 179.426 53.92C178.639 54.9733 177.872 55.6667 177.126 56C176.619 56.2267 176.092 56.34 175.546 56.34C174.999 56.34 174.552 56.3 174.206 56.22C173.859 56.1533 173.486 56 173.086 55.76C172.699 55.52 172.359 55.2067 172.066 54.82ZM172.986 50.88C172.986 52.32 173.259 53.3533 173.806 53.98C174.366 54.6067 175.172 54.92 176.226 54.92C176.626 54.92 176.919 54.8867 177.106 54.82C178.026 54.46 178.486 53.0733 178.486 50.66C178.486 49.5267 178.332 48.7 178.026 48.18C177.732 47.6467 177.219 47.2667 176.486 47.04C176.112 46.9467 175.772 46.9 175.466 46.9C175.159 46.9 174.932 46.9067 174.786 46.92C174.652 46.9333 174.472 46.9733 174.246 47.04C174.019 47.1067 173.846 47.22 173.726 47.38C173.606 47.5267 173.479 47.7333 173.346 48C173.106 48.48 172.986 49.44 172.986 50.88ZM187.438 53.04L187.478 48.3C187.478 47.34 187.391 46.8133 187.218 46.72C187.124 46.6667 186.958 46.64 186.718 46.64H186.078L186.038 45.98C187.078 45.8867 187.824 45.7867 188.278 45.68C188.744 45.56 188.998 45.5 189.038 45.5C189.278 45.5 189.398 45.6 189.398 45.8C189.398 47.48 189.371 49.1133 189.318 50.7C189.264 52.2867 189.238 53.2267 189.238 53.52C189.238 53.8133 189.384 54.2 189.678 54.68C189.984 55.1467 190.138 55.42 190.138 55.5C190.138 55.5667 190.078 55.62 189.958 55.66C189.024 55.9667 188.498 56.12 188.378 56.12C188.271 56.12 188.158 56.0267 188.038 55.84C187.931 55.64 187.831 55.4 187.738 55.12C187.644 54.84 187.591 54.6933 187.578 54.68C186.778 55.24 186.044 55.6333 185.378 55.86C184.711 56.0733 184.171 56.18 183.758 56.18C183.358 56.18 182.931 55.9867 182.478 55.6C182.038 55.2133 181.744 54.7333 181.598 54.16C181.464 53.7333 181.398 52.9067 181.398 51.68V48.46C181.398 48.1267 181.338 47.6667 181.218 47.08C181.191 46.9867 181.104 46.9067 180.958 46.84C180.811 46.7733 180.698 46.74 180.618 46.74C180.538 46.7267 180.364 46.72 180.098 46.72L180.058 46.04C180.911 45.9467 181.584 45.8333 182.078 45.7C182.571 45.5667 182.844 45.5 182.898 45.5C183.138 45.5 183.258 45.6 183.258 45.8L183.178 51.64C183.178 52.6267 183.231 53.28 183.338 53.6C183.458 53.92 183.638 54.1667 183.878 54.34C184.131 54.5133 184.378 54.6 184.618 54.6C184.871 54.6 185.218 54.5533 185.658 54.46C186.111 54.3667 186.478 54.2467 186.758 54.1C187.051 53.94 187.238 53.8067 187.318 53.7C187.398 53.58 187.438 53.36 187.438 53.04ZM193.411 48.76L193.391 54.18C193.391 54.5933 193.511 54.8667 193.751 55C193.991 55.12 194.351 55.2133 194.831 55.28C195.324 55.3467 195.591 55.38 195.631 55.38V56H190.031V55.32C190.351 55.28 190.564 55.26 190.671 55.26C190.778 55.2467 190.911 55.2067 191.071 55.14C191.244 55.06 191.344 54.9933 191.371 54.94C191.398 54.8733 191.438 54.74 191.491 54.54C191.544 54.34 191.571 54.14 191.571 53.94V52.36C191.571 49.68 191.524 48.1067 191.431 47.64C191.324 47.12 190.938 46.86 190.271 46.86L190.231 46.1C190.764 46.0467 191.311 45.92 191.871 45.72C192.431 45.52 192.791 45.42 192.951 45.42C193.111 45.42 193.224 45.5 193.291 45.66C193.358 45.8067 193.391 46.08 193.391 46.48L193.411 47.24C194.584 46.1067 195.511 45.54 196.191 45.54C196.684 45.54 197.024 45.6 197.211 45.72C197.398 45.84 197.491 46.06 197.491 46.38C197.491 46.4867 197.384 47.2067 197.171 48.54H196.451C196.384 47.54 196.044 47.04 195.431 47.04C195.084 47.04 194.658 47.2 194.151 47.52C193.658 47.8267 193.411 48.24 193.411 48.76ZM200.944 48.02C201.158 47.5267 201.671 46.9933 202.484 46.42C203.298 45.8333 204.031 45.54 204.684 45.54C205.351 45.54 205.918 45.6133 206.384 45.76C206.851 45.9067 207.218 46.1267 207.484 46.42C207.751 46.7 207.964 46.98 208.124 47.26C208.298 47.5267 208.411 47.8667 208.464 48.28C208.571 48.9467 208.624 49.4533 208.624 49.8V50.38C208.198 50.6467 207.498 50.78 206.524 50.78H202.424C202.424 52.2067 202.531 53.12 202.744 53.52C203.064 54.1067 203.464 54.4733 203.944 54.62C204.251 54.7133 204.611 54.76 205.024 54.76C206.184 54.76 207.244 54.2867 208.204 53.34L208.644 53.8C208.591 53.8533 208.464 53.9867 208.264 54.2C208.064 54.4 207.931 54.5333 207.864 54.6C207.798 54.6667 207.671 54.7933 207.484 54.98C207.298 55.1533 207.151 55.2733 207.044 55.34C206.951 55.4067 206.811 55.5067 206.624 55.64C206.451 55.7733 206.298 55.8667 206.164 55.92C206.044 55.9733 205.891 56.04 205.704 56.12C205.398 56.24 205.038 56.3 204.624 56.3C203.824 56.3 203.138 56.1467 202.564 55.84C202.004 55.52 201.584 55.0933 201.304 54.56C200.771 53.5867 200.504 52.4267 200.504 51.08C200.504 49.7333 200.651 48.7133 200.944 48.02ZM202.464 49.88H203.604C205.378 49.88 206.431 49.76 206.764 49.52C206.764 48.9467 206.671 48.4533 206.484 48.04C206.138 47.24 205.524 46.84 204.644 46.84C203.764 46.84 203.178 47.0667 202.884 47.52C202.604 47.96 202.464 48.7467 202.464 49.88ZM216.28 45.82L217.6 45.74C217.787 45.74 217.88 45.84 217.88 46.04C217.88 46.08 217.867 46.12 217.84 46.16C217.827 46.1867 217.794 46.24 217.74 46.32C217.7 46.4 217.64 46.5 217.56 46.62C217.494 46.7267 217.394 46.9067 217.26 47.16C217.14 47.4 217 47.68 216.84 48C216.534 48.64 216.074 49.7 215.46 51.18C214.247 54.22 213.287 56.8533 212.58 59.08C212.407 59.6133 212.287 59.9267 212.22 60.02C212.167 60.1133 212.06 60.16 211.9 60.16C211.02 60.16 210.58 59.9667 210.58 59.58C210.58 59.3667 210.814 58.88 211.28 58.12C211.76 57.3733 212 56.7733 212 56.32C212 55.8667 211.614 54.2933 210.84 51.6C210.08 48.9067 209.54 47.3733 209.22 47C209.087 46.8267 208.94 46.7333 208.78 46.72C208.634 46.6933 208.494 46.68 208.36 46.68C208.227 46.6667 208.134 46.6533 208.08 46.64L208.04 45.98C208.92 45.86 209.6 45.74 210.08 45.62C210.574 45.4867 210.847 45.42 210.9 45.42C211.127 45.42 211.24 45.52 211.24 45.72C211.24 46.1067 211.76 48.2 212.8 52L213.34 53.9C214.754 50.1267 215.46 47.8533 215.46 47.08C215.46 46.72 215.34 46.54 215.1 46.54C214.86 46.54 214.74 46.4067 214.74 46.14C214.74 45.9 214.967 45.78 215.42 45.78L216.28 45.82ZM217.333 48.02C217.547 47.5267 218.06 46.9933 218.873 46.42C219.687 45.8333 220.42 45.54 221.073 45.54C221.74 45.54 222.307 45.6133 222.773 45.76C223.24 45.9067 223.607 46.1267 223.873 46.42C224.14 46.7 224.353 46.98 224.513 47.26C224.687 47.5267 224.8 47.8667 224.853 48.28C224.96 48.9467 225.013 49.4533 225.013 49.8V50.38C224.587 50.6467 223.887 50.78 222.913 50.78H218.813C218.813 52.2067 218.92 53.12 219.133 53.52C219.453 54.1067 219.853 54.4733 220.333 54.62C220.64 54.7133 221 54.76 221.413 54.76C222.573 54.76 223.633 54.2867 224.593 53.34L225.033 53.8C224.98 53.8533 224.853 53.9867 224.653 54.2C224.453 54.4 224.32 54.5333 224.253 54.6C224.187 54.6667 224.06 54.7933 223.873 54.98C223.687 55.1533 223.54 55.2733 223.433 55.34C223.34 55.4067 223.2 55.5067 223.013 55.64C222.84 55.7733 222.687 55.8667 222.553 55.92C222.433 55.9733 222.28 56.04 222.093 56.12C221.787 56.24 221.427 56.3 221.013 56.3C220.213 56.3 219.527 56.1467 218.953 55.84C218.393 55.52 217.973 55.0933 217.693 54.56C217.16 53.5867 216.893 52.4267 216.893 51.08C216.893 49.7333 217.04 48.7133 217.333 48.02ZM218.853 49.88H219.993C221.767 49.88 222.82 49.76 223.153 49.52C223.153 48.9467 223.06 48.4533 222.873 48.04C222.527 47.24 221.913 46.84 221.033 46.84C220.153 46.84 219.567 47.0667 219.273 47.52C218.993 47.96 218.853 48.7467 218.853 49.88ZM227.069 51.36C226.589 51.1733 226.176 50.8733 225.829 50.46C225.496 50.0467 225.329 49.5133 225.329 48.86C225.329 48.2067 225.443 47.7067 225.669 47.36C226.149 46.5867 226.603 46.0867 227.029 45.86C227.456 45.62 228.003 45.5 228.669 45.5C229.336 45.5 229.936 45.6133 230.469 45.84C230.616 45.8933 230.723 45.9467 230.789 46C231.029 46.1467 231.149 46.42 231.149 46.82C231.149 46.86 231.143 46.96 231.129 47.12C231.103 47.4667 231.089 48.02 231.089 48.78H230.349C230.336 48.6067 230.276 48.3533 230.169 48.02C230.076 47.6867 229.969 47.4333 229.849 47.26C229.583 46.8733 229.083 46.68 228.349 46.68C227.643 46.68 227.176 46.8533 226.949 47.2C226.763 47.48 226.669 47.7933 226.669 48.14C226.669 48.4733 226.836 48.7733 227.169 49.04C227.503 49.2933 227.909 49.5 228.389 49.66C228.869 49.82 229.349 50 229.829 50.2C230.323 50.3867 230.736 50.7067 231.069 51.16C231.403 51.6 231.569 52.1667 231.569 52.86C231.569 53.5533 231.469 54.0667 231.269 54.4C230.909 54.9733 230.483 55.4533 229.989 55.84C229.789 55.9867 229.476 56.1067 229.049 56.2C228.623 56.2933 228.303 56.34 228.089 56.34C226.663 56.34 225.809 56.1 225.529 55.62C225.423 55.4467 225.369 55.22 225.369 54.94C225.369 53.86 225.396 53.2 225.449 52.96C225.516 52.7067 225.656 52.58 225.869 52.58C226.096 52.58 226.236 52.6733 226.289 52.86C226.343 53.0467 226.389 53.3067 226.429 53.64C226.576 54.5867 227.229 55.06 228.389 55.06C228.976 55.06 229.436 54.9267 229.769 54.66C230.103 54.3933 230.269 54.0333 230.269 53.58C230.269 53.1133 230.096 52.7467 229.749 52.48C229.416 52.2133 229.003 52.0067 228.509 51.86C228.029 51.7 227.549 51.5333 227.069 51.36ZM233.184 56.2C232.997 56.2 232.79 55.9267 232.564 55.38C232.337 54.82 232.224 54.4667 232.224 54.32C232.224 54.16 232.337 53.9067 232.564 53.56C232.804 53.2133 233.037 53.04 233.264 53.04C233.49 53.04 233.75 53.2867 234.044 53.78C234.35 54.2733 234.504 54.62 234.504 54.82C234.504 55.02 234.337 55.3 234.004 55.66C233.684 56.02 233.41 56.2 233.184 56.2Z" fill="#E44D4E"/>
<path d="M63.0794 12.64C62.738 12.64 62.354 12.384 61.9274 11.872C61.5007 11.3387 61.2874 10.9547 61.2874 10.72C61.2874 10.464 61.458 10.016 61.7994 9.376C62.162 8.736 62.5354 8.416 62.9194 8.416C63.3034 8.416 63.73 8.61867 64.1994 9.024C64.6687 9.408 64.9034 9.856 64.9034 10.368C64.9034 10.88 64.6794 11.392 64.2314 11.904C63.8047 12.3947 63.4207 12.64 63.0794 12.64ZM59.3994 32V30.912C60.4874 30.8267 61.17 30.688 61.4474 30.496C61.7247 30.2827 61.8634 29.856 61.8634 29.216V22.56C61.8634 20.704 61.81 19.4133 61.7034 18.688C61.618 17.9627 61.4687 17.504 61.2554 17.312C61.042 17.0987 60.6367 16.992 60.0394 16.992H59.5594L59.4954 15.936C61.074 15.7867 62.2474 15.6267 63.0154 15.456C63.8047 15.264 64.2314 15.168 64.2954 15.168C64.658 15.168 64.8394 15.3387 64.8394 15.68C64.8394 15.936 64.8287 16.64 64.8074 17.792C64.722 22.3573 64.6794 26.2933 64.6794 29.6C64.6794 30.0267 64.85 30.3467 65.1914 30.56C65.5327 30.752 66.0767 30.8693 66.8234 30.912V32H59.3994ZM73.5186 32V30.816C74.1586 30.7733 74.6493 30.72 74.9906 30.656C75.3533 30.592 75.6733 30.4533 75.9506 30.24C76.2493 30.0267 76.3986 29.728 76.3986 29.344C76.3986 21.9627 76.324 15.7973 76.1746 10.848C76.1533 10.3787 75.9826 10.0693 75.6626 9.92C75.364 9.74933 74.7986 9.64267 73.9666 9.6L73.5186 9.568V8.384C74.6706 8.46933 76.1746 8.512 78.0306 8.512C79.8866 8.512 81.3586 8.45867 82.4466 8.352C83.5346 8.24533 84.1853 8.192 84.3986 8.192H85.0386C86.148 8.192 87.1186 8.33067 87.9506 8.608C88.804 8.88533 89.4546 9.216 89.9026 9.6C90.372 9.984 90.7453 10.4427 91.0226 10.976C91.4706 11.8293 91.6946 12.8213 91.6946 13.952C91.6946 16.1067 90.5106 17.76 88.1426 18.912L87.1826 19.392C90.7453 20.5867 92.5266 22.5173 92.5266 25.184C92.5266 27.0827 91.748 28.7253 90.1906 30.112C88.6333 31.4987 86.8626 32.192 84.8786 32.192H84.2066C83.588 32.192 82.7453 32.1493 81.6786 32.064L80.6546 32C79.5026 31.9147 78.308 31.872 77.0706 31.872C75.8546 31.872 74.6706 31.9147 73.5186 32ZM79.5346 27.52C79.5346 28.7147 79.8973 29.4613 80.6226 29.76C81.348 30.0587 82.916 30.208 85.3266 30.208C86.2226 30.208 87.076 29.76 87.8866 28.864C88.7186 27.968 89.1346 26.752 89.1346 25.216C89.1346 23.6587 88.6333 22.464 87.6306 21.632C86.628 20.7787 85.2306 20.352 83.4386 20.352C81.668 20.352 80.388 20.416 79.5986 20.544C79.556 22.976 79.5346 25.3013 79.5346 27.52ZM79.5986 19.008C80.9853 18.88 82.0946 18.816 82.9266 18.816C83.7586 18.816 84.4306 18.8373 84.9426 18.88C86.0946 18.5387 86.9266 17.952 87.4386 17.12C87.9506 16.288 88.2066 15.4133 88.2066 14.496C88.2066 13.5573 88.0466 12.768 87.7266 12.128C87.4066 11.4667 87.0333 10.9867 86.6066 10.688C85.732 10.0693 85.0813 9.76 84.6546 9.76C82.308 9.76 80.7933 9.888 80.1106 10.144L79.7266 10.496C79.6626 13.504 79.62 16.3413 79.5986 19.008ZM111.004 27.264L111.068 19.68C111.068 18.144 110.929 17.3013 110.652 17.152C110.503 17.0667 110.236 17.024 109.852 17.024H108.828L108.764 15.968C110.428 15.8187 111.623 15.6587 112.348 15.488C113.095 15.296 113.5 15.2 113.564 15.2C113.948 15.2 114.14 15.36 114.14 15.68C114.14 18.368 114.097 20.9813 114.012 23.52C113.927 26.0587 113.884 27.5627 113.884 28.032C113.884 28.5013 114.119 29.12 114.588 29.888C115.079 30.6347 115.324 31.072 115.324 31.2C115.324 31.3067 115.228 31.392 115.036 31.456C113.543 31.9467 112.7 32.192 112.508 32.192C112.337 32.192 112.156 32.0427 111.964 31.744C111.793 31.424 111.633 31.04 111.484 30.592C111.335 30.144 111.249 29.9093 111.228 29.888C109.948 30.784 108.775 31.4133 107.708 31.776C106.641 32.1173 105.777 32.288 105.116 32.288C104.476 32.288 103.793 31.9787 103.068 31.36C102.364 30.7413 101.895 29.9733 101.66 29.056C101.447 28.3733 101.34 27.0507 101.34 25.088V19.936C101.34 19.4027 101.244 18.6667 101.052 17.728C101.009 17.5787 100.871 17.4507 100.636 17.344C100.401 17.2373 100.22 17.184 100.092 17.184C99.9639 17.1627 99.6865 17.152 99.2599 17.152L99.1959 16.064C100.561 15.9147 101.639 15.7333 102.428 15.52C103.217 15.3067 103.655 15.2 103.74 15.2C104.124 15.2 104.316 15.36 104.316 15.68L104.188 25.024C104.188 26.6027 104.273 27.648 104.444 28.16C104.636 28.672 104.924 29.0667 105.308 29.344C105.713 29.6213 106.108 29.76 106.492 29.76C106.897 29.76 107.452 29.6853 108.156 29.536C108.881 29.3867 109.468 29.1947 109.916 28.96C110.385 28.704 110.684 28.4907 110.812 28.32C110.94 28.128 111.004 27.776 111.004 27.264ZM126.033 12.64C125.692 12.64 125.308 12.384 124.881 11.872C124.454 11.3387 124.241 10.9547 124.241 10.72C124.241 10.464 124.412 10.016 124.753 9.376C125.116 8.736 125.489 8.416 125.873 8.416C126.257 8.416 126.684 8.61867 127.153 9.024C127.622 9.408 127.857 9.856 127.857 10.368C127.857 10.88 127.633 11.392 127.185 11.904C126.758 12.3947 126.374 12.64 126.033 12.64ZM122.353 32V30.912C123.441 30.8267 124.124 30.688 124.401 30.496C124.678 30.2827 124.817 29.856 124.817 29.216V22.56C124.817 20.704 124.764 19.4133 124.657 18.688C124.572 17.9627 124.422 17.504 124.209 17.312C123.996 17.0987 123.59 16.992 122.993 16.992H122.513L122.449 15.936C124.028 15.7867 125.201 15.6267 125.969 15.456C126.758 15.264 127.185 15.168 127.249 15.168C127.612 15.168 127.793 15.3387 127.793 15.68C127.793 15.936 127.782 16.64 127.761 17.792C127.676 22.3573 127.633 26.2933 127.633 29.6C127.633 30.0267 127.804 30.3467 128.145 30.56C128.486 30.752 129.03 30.8693 129.777 30.912V32H122.353ZM136.376 32V30.912C136.547 30.8907 136.771 30.8587 137.048 30.816C137.326 30.752 137.507 30.72 137.592 30.72C137.678 30.6987 137.806 30.656 137.976 30.592C138.168 30.528 138.286 30.4747 138.328 30.432C138.371 30.3893 138.446 30.304 138.552 30.176C138.659 30.048 138.712 29.92 138.712 29.792C138.734 29.664 138.766 29.4933 138.808 29.28C138.851 29.0453 138.872 28.8 138.872 28.544V21.664C138.872 19.4667 138.84 15.9573 138.776 11.136L138.744 9.6C138.723 9.06667 138.595 8.72533 138.36 8.576C138.126 8.42667 137.656 8.352 136.952 8.352H136.536L136.472 7.296C138.051 7.104 139.224 6.92267 139.992 6.752C140.76 6.56 141.187 6.464 141.272 6.464C141.635 6.464 141.816 6.624 141.816 6.944C141.859 8.69333 141.88 10.88 141.88 13.504C141.88 16.128 141.827 18.9333 141.72 21.92C141.614 24.8853 141.56 27.232 141.56 28.96C141.56 29.7707 141.678 30.272 141.912 30.464C142.168 30.6347 142.84 30.784 143.928 30.912V32H136.376ZM161.182 15.552L161.118 10.752C161.118 10.0693 161.107 9.6 161.086 9.344C161.086 9.06667 160.979 8.832 160.766 8.64C160.574 8.448 160.371 8.352 160.158 8.352C159.966 8.33067 159.539 8.30933 158.878 8.288L158.814 7.232C160.435 7.08267 161.63 6.92267 162.398 6.752C163.166 6.56 163.582 6.464 163.646 6.464C164.009 6.464 164.19 6.63467 164.19 6.976C164.19 11.5627 164.147 15.968 164.062 20.192C163.998 24.3947 163.966 26.8693 163.966 27.616C163.966 28.3413 164.233 29.1093 164.766 29.92C165.321 30.7307 165.598 31.1573 165.598 31.2C165.598 31.2427 165.502 31.3067 165.31 31.392C165.139 31.456 164.915 31.5307 164.638 31.616C164.361 31.7013 163.998 31.84 163.55 32.032C163.123 32.224 162.825 32.32 162.654 32.32C162.483 32.32 162.313 32.1493 162.142 31.808C161.971 31.4453 161.801 31.0507 161.63 30.624C161.481 30.1973 161.353 29.9307 161.246 29.824C159.646 31.5947 158.227 32.48 156.99 32.48C155.923 32.48 154.686 31.8933 153.278 30.72C152.553 30.144 151.945 29.2907 151.454 28.16C150.963 27.0293 150.718 25.8027 150.718 24.48C150.718 23.1573 150.782 22.0587 150.91 21.184C151.038 20.3093 151.177 19.6373 151.326 19.168C151.475 18.6773 151.699 18.24 151.998 17.856C152.318 17.472 152.553 17.216 152.702 17.088C152.873 16.96 153.139 16.7893 153.502 16.576L154.59 15.936C155.507 15.3813 156.51 15.104 157.598 15.104C158.707 15.104 159.902 15.2533 161.182 15.552ZM153.534 22.688C153.534 25.1413 153.95 26.9333 154.782 28.064C155.635 29.1733 156.67 29.728 157.886 29.728C159.102 29.728 160.211 29.248 161.214 28.288C161.214 24.5547 161.193 21.9093 161.15 20.352C161.129 18.7733 161.118 17.9413 161.118 17.856C160.115 17.2587 158.857 16.96 157.342 16.96C156.702 16.96 156.179 17.024 155.774 17.152C155.39 17.2587 155.006 17.5147 154.622 17.92C153.897 18.6453 153.534 20.2347 153.534 22.688ZM173.417 19.232C173.758 18.4427 174.58 17.5893 175.881 16.672C177.182 15.7333 178.356 15.264 179.401 15.264C180.468 15.264 181.374 15.3813 182.121 15.616C182.868 15.8507 183.454 16.2027 183.881 16.672C184.308 17.12 184.649 17.568 184.905 18.016C185.182 18.4427 185.364 18.9867 185.449 19.648C185.62 20.7147 185.705 21.5253 185.705 22.08V23.008C185.022 23.4347 183.902 23.648 182.345 23.648H175.785C175.785 25.9307 175.956 27.392 176.297 28.032C176.809 28.9707 177.449 29.5573 178.217 29.792C178.708 29.9413 179.284 30.016 179.945 30.016C181.801 30.016 183.497 29.2587 185.033 27.744L185.737 28.48C185.652 28.5653 185.449 28.7787 185.129 29.12C184.809 29.44 184.596 29.6533 184.489 29.76C184.382 29.8667 184.18 30.0693 183.881 30.368C183.582 30.6453 183.348 30.8373 183.177 30.944C183.028 31.0507 182.804 31.2107 182.505 31.424C182.228 31.6373 181.982 31.7867 181.769 31.872C181.577 31.9573 181.332 32.064 181.033 32.192C180.542 32.384 179.966 32.48 179.305 32.48C178.025 32.48 176.926 32.2347 176.009 31.744C175.113 31.232 174.441 30.5493 173.993 29.696C173.14 28.1387 172.713 26.2827 172.713 24.128C172.713 21.9733 172.948 20.3413 173.417 19.232ZM175.849 22.208H177.673C180.51 22.208 182.196 22.016 182.729 21.632C182.729 20.7147 182.58 19.9253 182.281 19.264C181.726 17.984 180.745 17.344 179.337 17.344C177.929 17.344 176.99 17.7067 176.521 18.432C176.073 19.136 175.849 20.3947 175.849 22.208ZM198.019 20.416L197.987 29.088C197.987 29.7493 198.179 30.1867 198.563 30.4C198.947 30.592 199.523 30.7413 200.291 30.848C201.08 30.9547 201.507 31.008 201.571 31.008V32H192.611V30.912C193.123 30.848 193.464 30.816 193.635 30.816C193.805 30.7947 194.019 30.7307 194.275 30.624C194.552 30.496 194.712 30.3893 194.755 30.304C194.797 30.1973 194.861 29.984 194.947 29.664C195.032 29.344 195.075 29.024 195.075 28.704V26.176C195.075 21.888 195 19.3707 194.851 18.624C194.68 17.792 194.061 17.376 192.995 17.376L192.931 16.16C193.784 16.0747 194.659 15.872 195.555 15.552C196.451 15.232 197.027 15.072 197.283 15.072C197.539 15.072 197.72 15.2 197.827 15.456C197.933 15.6907 197.987 16.128 197.987 16.768L198.019 17.984C199.896 16.1707 201.379 15.264 202.467 15.264C203.256 15.264 203.8 15.36 204.099 15.552C204.397 15.744 204.547 16.096 204.547 16.608C204.547 16.7787 204.376 17.9307 204.035 20.064H202.883C202.776 18.464 202.232 17.664 201.251 17.664C200.696 17.664 200.013 17.92 199.203 18.432C198.413 18.9227 198.019 19.584 198.019 20.416Z" fill="#E44D4E"/>
<path d="M61.9274 11.872L61.5369 12.1844L61.5433 12.1921L61.9274 11.872ZM61.7994 9.376L61.3642 9.12941L61.3582 9.14071L61.7994 9.376ZM64.1994 9.024L63.8725 9.40254L63.8828 9.41098L64.1994 9.024ZM64.2314 11.904L63.8551 11.5747L63.8541 11.5759L64.2314 11.904ZM59.3994 32H58.8994V32.5H59.3994V32ZM59.3994 30.912L59.3603 30.4135L58.8994 30.4497V30.912H59.3994ZM61.4474 30.496L61.732 30.9071L61.7423 30.9L61.7522 30.8923L61.4474 30.496ZM61.7034 18.688L61.2068 18.7464L61.2076 18.7536L61.2087 18.7607L61.7034 18.688ZM61.2554 17.312L60.9018 17.6656L60.9111 17.6749L60.9209 17.6836L61.2554 17.312ZM59.5594 16.992L59.0603 17.0222L59.0888 17.492H59.5594V16.992ZM59.4954 15.936L59.4483 15.4382L58.9671 15.4837L58.9963 15.9662L59.4954 15.936ZM63.0154 15.456L63.1239 15.9442L63.1336 15.9418L63.0154 15.456ZM64.8074 17.792L65.3073 17.8013L65.3073 17.8013L64.8074 17.792ZM65.1914 30.56L64.9264 30.984L64.9362 30.9901L64.9462 30.9958L65.1914 30.56ZM66.8234 30.912H67.3234V30.4398L66.8519 30.4128L66.8234 30.912ZM66.8234 32V32.5H67.3234V32H66.8234ZM63.0794 12.14C62.9788 12.14 62.7249 12.048 62.3115 11.5519L61.5433 12.1921C61.9832 12.72 62.4973 13.14 63.0794 13.14V12.14ZM62.3178 11.5597C62.1135 11.3043 61.9723 11.0992 61.8845 10.9412C61.7888 10.7691 61.7874 10.7065 61.7874 10.72H60.7874C60.7874 10.9681 60.8926 11.2149 61.0103 11.4268C61.1358 11.6528 61.3146 11.9064 61.5369 12.1843L62.3178 11.5597ZM61.7874 10.72C61.7874 10.6849 61.8034 10.5779 61.8826 10.37C61.9577 10.1728 62.0753 9.92112 62.2406 9.61129L61.3582 9.14071C61.1821 9.47087 61.0437 9.76316 60.9481 10.014C60.8567 10.2541 60.7874 10.4991 60.7874 10.72H61.7874ZM62.2344 9.62251C62.5874 8.99951 62.8327 8.916 62.9194 8.916V7.916C62.238 7.916 61.7367 8.47249 61.3644 9.12949L62.2344 9.62251ZM62.9194 8.916C63.1287 8.916 63.4416 9.03023 63.8726 9.40241L64.5262 8.64559C64.0185 8.2071 63.4781 7.916 62.9194 7.916V8.916ZM63.8828 9.41098C64.2598 9.71947 64.4034 10.0342 64.4034 10.368H65.4034C65.4034 9.67779 65.0776 9.09652 64.516 8.63702L63.8828 9.41098ZM64.4034 10.368C64.4034 10.7238 64.2499 11.1235 63.8551 11.5747L64.6077 12.2333C65.1088 11.6605 65.4034 11.0362 65.4034 10.368H64.4034ZM63.8541 11.5759C63.4443 12.0471 63.189 12.14 63.0794 12.14V13.14C63.6524 13.14 64.1651 12.7422 64.6087 12.2321L63.8541 11.5759ZM59.8994 32V30.912H58.8994V32H59.8994ZM59.4385 31.4105C59.9928 31.367 60.4578 31.309 60.8269 31.234C61.1789 31.1625 61.5047 31.0645 61.732 30.9071L61.1628 30.0849C61.1127 30.1195 60.9585 30.1868 60.6278 30.254C60.3143 30.3177 59.894 30.3717 59.3603 30.4135L59.4385 31.4105ZM61.7522 30.8923C62.2245 30.5291 62.3634 29.8896 62.3634 29.216H61.3634C61.3634 29.8224 61.225 30.0363 61.1425 30.0997L61.7522 30.8923ZM62.3634 29.216V22.56H61.3634V29.216H62.3634ZM62.3634 22.56C62.3634 20.7054 62.3107 19.3811 62.1981 18.6153L61.2087 18.7607C61.3094 19.4456 61.3634 20.7026 61.3634 22.56H62.3634ZM62.2 18.6296C62.1552 18.249 62.0915 17.9175 62.0028 17.6452C61.9173 17.3826 61.7921 17.1224 61.5899 16.9404L60.9209 17.6836C60.932 17.6936 60.9881 17.7587 61.0519 17.9548C61.1126 18.1412 61.1662 18.4016 61.2068 18.7464L62.2 18.6296ZM61.6089 16.9584C61.2442 16.5938 60.656 16.492 60.0394 16.492V17.492C60.6174 17.492 60.8399 17.6036 60.9018 17.6656L61.6089 16.9584ZM60.0394 16.492H59.5594V17.492H60.0394V16.492ZM60.0585 16.9618L59.9945 15.9058L58.9963 15.9662L59.0603 17.0222L60.0585 16.9618ZM59.5425 16.4338C61.1255 16.284 62.3242 16.1218 63.1238 15.9441L62.9069 14.9679C62.1705 15.1315 61.0226 15.2893 59.4483 15.4382L59.5425 16.4338ZM63.1336 15.9418C63.5274 15.846 63.828 15.7748 64.0371 15.7278C64.1421 15.7042 64.2208 15.6874 64.2754 15.6767C64.3539 15.6613 64.3386 15.668 64.2954 15.668V14.668C64.2201 14.668 64.1275 14.6867 64.0834 14.6953C64.0153 14.7086 63.926 14.7278 63.8176 14.7522C63.6 14.8012 63.2927 14.874 62.8972 14.9702L63.1336 15.9418ZM64.2954 15.668C64.3484 15.668 64.3752 15.6744 64.3837 15.6771C64.3874 15.6782 64.3859 15.6781 64.381 15.6754C64.3759 15.6725 64.3686 15.6676 64.3607 15.6601C64.3527 15.6526 64.3462 15.6445 64.3413 15.6368C64.3365 15.6292 64.3345 15.624 64.3341 15.6229C64.3336 15.6216 64.3394 15.6376 64.3394 15.68H65.3394C65.3394 15.4242 65.27 15.1427 65.0461 14.9319C64.8278 14.7265 64.5465 14.668 64.2954 14.668V15.668ZM64.3394 15.68C64.3394 15.9302 64.3288 16.6287 64.3075 17.7827L65.3073 17.8013C65.3286 16.6513 65.3394 15.9418 65.3394 15.68H64.3394ZM64.3075 17.7827C64.2221 22.35 64.1794 26.2893 64.1794 29.6H65.1794C65.1794 26.2974 65.222 22.3646 65.3073 17.8013L64.3075 17.7827ZM64.1794 29.6C64.1794 30.1866 64.4286 30.6729 64.9264 30.984L65.4564 30.136C65.2715 30.0205 65.1794 29.8668 65.1794 29.6H64.1794ZM64.9462 30.9958C65.3904 31.2456 66.0292 31.3674 66.7949 31.4112L66.8519 30.4128C66.1243 30.3712 65.6751 30.2584 65.4365 30.1242L64.9462 30.9958ZM66.3234 30.912V32H67.3234V30.912H66.3234ZM66.8234 31.5H59.3994V32.5H66.8234V31.5ZM73.5186 32H73.0186V32.5384L73.5556 32.4986L73.5186 32ZM73.5186 30.816L73.4854 30.3171L73.0186 30.3482V30.816H73.5186ZM74.9906 30.656L74.9037 30.1636L74.8985 30.1646L74.9906 30.656ZM75.9506 30.24L75.66 29.8331L75.6528 29.8383L75.6458 29.8437L75.9506 30.24ZM76.1746 10.848L76.6745 10.8329L76.6741 10.8253L76.1746 10.848ZM75.6626 9.92L75.4146 10.3541L75.4325 10.3644L75.4512 10.3731L75.6626 9.92ZM73.9666 9.6L73.931 10.0988L73.941 10.0993L73.9666 9.6ZM73.5186 9.568H73.0186V10.0336L73.483 10.0667L73.5186 9.568ZM73.5186 8.384L73.5556 7.88537L73.0186 7.84559V8.384H73.5186ZM82.4466 8.352L82.4954 8.84961L82.4466 8.352ZM87.9506 8.608L87.7925 9.08235L87.7961 9.08352L87.9506 8.608ZM89.9026 9.6L89.5771 9.97973L89.586 9.98698L89.9026 9.6ZM91.0226 10.976L90.579 11.2067L90.5799 11.2084L91.0226 10.976ZM88.1426 18.912L87.9239 18.4624L87.919 18.4648L88.1426 18.912ZM87.1826 19.392L86.959 18.9448L85.8821 19.4833L87.0237 19.8661L87.1826 19.392ZM90.1906 30.112L89.8581 29.7386L90.1906 30.112ZM81.6786 32.064L81.7185 31.5655L81.7098 31.565L81.6786 32.064ZM80.6546 32L80.6177 32.4987L80.6234 32.499L80.6546 32ZM80.6226 29.76L80.4323 30.2223L80.6226 29.76ZM87.8866 28.864L87.5202 28.5237L87.5159 28.5285L87.8866 28.864ZM87.6306 21.632L87.3065 22.0128L87.3113 22.0168L87.6306 21.632ZM79.5986 20.544L79.5186 20.0504L79.106 20.1173L79.0987 20.5352L79.5986 20.544ZM79.5986 19.008L79.0986 19.004L79.0942 19.5567L79.6446 19.5059L79.5986 19.008ZM84.9426 18.88L84.9011 19.3783L84.9947 19.3861L85.0847 19.3594L84.9426 18.88ZM87.4386 17.12L87.0128 16.858L87.4386 17.12ZM87.7266 12.128L87.2765 12.3458L87.2794 12.3516L87.7266 12.128ZM86.6066 10.688L86.3179 11.0962L86.3199 11.0976L86.6066 10.688ZM80.1106 10.144L79.9351 9.67583L79.8443 9.70989L79.7728 9.77542L80.1106 10.144ZM79.7266 10.496L79.3888 10.1274L79.2313 10.2718L79.2267 10.4854L79.7266 10.496ZM74.0186 32V30.816H73.0186V32H74.0186ZM73.5519 31.3149C74.1981 31.2718 74.7121 31.2169 75.0828 31.1474L74.8985 30.1646C74.5865 30.2231 74.1191 30.2749 73.4854 30.3171L73.5519 31.3149ZM75.0775 31.1484C75.5152 31.0711 75.9109 30.9014 76.2555 30.6363L75.6458 29.8437C75.4357 30.0053 75.1914 30.1129 74.9037 30.1636L75.0775 31.1484ZM76.2412 30.6469C76.6783 30.3347 76.8986 29.8807 76.8986 29.344H75.8986C75.8986 29.5753 75.8203 29.7187 75.66 29.8331L76.2412 30.6469ZM76.8986 29.344C76.8986 21.9598 76.8239 15.7891 76.6744 10.8329L75.6749 10.8631C75.824 15.8056 75.8986 21.9655 75.8986 29.344H76.8986ZM76.6741 10.8253C76.6476 10.2414 76.4188 9.72112 75.8741 9.46691L75.4512 10.3731C75.5464 10.4175 75.659 10.516 75.6751 10.8707L76.6741 10.8253ZM75.9107 9.48588C75.6915 9.3606 75.413 9.27835 75.1073 9.22067C74.7951 9.16176 74.4217 9.12268 73.9922 9.10065L73.941 10.0993C74.3435 10.12 74.6688 10.1556 74.9219 10.2033C75.1815 10.2523 75.3351 10.3087 75.4146 10.3541L75.9107 9.48588ZM74.0023 9.10127L73.5542 9.06927L73.483 10.0667L73.931 10.0987L74.0023 9.10127ZM74.0186 9.568V8.384H73.0186V9.568H74.0186ZM73.4817 8.88263C74.651 8.96925 76.1687 9.012 78.0306 9.012V8.012C76.1805 8.012 74.6902 7.96941 73.5556 7.88537L73.4817 8.88263ZM78.0306 9.012C79.8934 9.012 81.3839 8.95859 82.4954 8.84961L82.3978 7.85438C81.3334 7.95875 79.8799 8.012 78.0306 8.012V9.012ZM82.4954 8.84961C83.5964 8.74167 84.2162 8.692 84.3986 8.692V7.692C84.1544 7.692 83.4728 7.74899 82.3978 7.85438L82.4954 8.84961ZM84.3986 8.692H85.0386V7.692H84.3986V8.692ZM85.0386 8.692C86.1078 8.692 87.0229 8.82582 87.7925 9.08234L88.1087 8.13366C87.2143 7.83551 86.1881 7.692 85.0386 7.692V8.692ZM87.7961 9.08352C88.6161 9.35003 89.1984 9.6549 89.5772 9.97963L90.228 9.22037C89.7109 8.77709 88.9918 8.42064 88.1052 8.13248L87.7961 9.08352ZM89.586 9.98698C90.0033 10.3284 90.3333 10.7341 90.579 11.2067L91.4662 10.7453C91.1573 10.1513 90.7406 9.63958 90.2192 9.21302L89.586 9.98698ZM90.5799 11.2084C90.9843 11.9786 91.1946 12.8883 91.1946 13.952H92.1946C92.1946 12.7544 91.957 11.6801 91.4653 10.7436L90.5799 11.2084ZM91.1946 13.952C91.1946 14.9315 90.9276 15.7803 90.4001 16.5169C89.8687 17.2589 89.0545 17.9123 87.9239 18.4624L88.3614 19.3616C89.5987 18.7597 90.5605 18.0105 91.2131 17.0991C91.8697 16.1823 92.1946 15.1272 92.1946 13.952H91.1946ZM87.919 18.4648L86.959 18.9448L87.4062 19.8392L88.3662 19.3592L87.919 18.4648ZM87.0237 19.8661C88.7575 20.4475 90.0088 21.1925 90.8231 22.0751C91.6272 22.9465 92.0266 23.9742 92.0266 25.184H93.0266C93.0266 23.7271 92.5354 22.4562 91.5581 21.3969C90.5911 20.3489 89.1705 19.5312 87.3416 18.9179L87.0237 19.8661ZM92.0266 25.184C92.0266 26.925 91.3206 28.4363 89.8581 29.7386L90.5231 30.4854C92.1753 29.0143 93.0266 27.2403 93.0266 25.184H92.0266ZM89.8581 29.7386C88.3873 31.0483 86.7334 31.692 84.8786 31.692V32.692C86.9919 32.692 88.8793 31.9491 90.5231 30.4854L89.8581 29.7386ZM84.8786 31.692H84.2066V32.692H84.8786V31.692ZM84.2066 31.692C83.6074 31.692 82.78 31.6505 81.7185 31.5656L81.6388 32.5624C82.7106 32.6482 83.5685 32.692 84.2066 32.692V31.692ZM81.7098 31.565L80.6858 31.501L80.6234 32.499L81.6474 32.563L81.7098 31.565ZM80.6916 31.5014C79.5264 31.4151 78.3194 31.372 77.0706 31.372V32.372C78.2965 32.372 79.4788 32.4143 80.6177 32.4986L80.6916 31.5014ZM77.0706 31.372C75.8429 31.372 74.6466 31.4151 73.4817 31.5014L73.5556 32.4986C74.6946 32.4143 75.8663 32.372 77.0706 32.372V31.372ZM79.0346 27.52C79.0346 28.7956 79.4281 29.8089 80.4323 30.2223L80.813 29.2977C80.3665 29.1138 80.0346 28.6338 80.0346 27.52H79.0346ZM80.4323 30.2223C80.8664 30.4011 81.5011 30.5181 82.2952 30.5937C83.1009 30.6705 84.1128 30.708 85.3266 30.708V29.708C84.1298 29.708 83.1524 29.6709 82.39 29.5983C81.6161 29.5245 81.1042 29.4175 80.813 29.2977L80.4323 30.2223ZM85.3266 30.708C86.4083 30.708 87.3865 30.162 88.2574 29.1995L87.5159 28.5285C86.7654 29.358 86.037 29.708 85.3266 29.708V30.708ZM88.253 29.2042C89.1914 28.1937 89.6346 26.8445 89.6346 25.216H88.6346C88.6346 26.6595 88.2459 27.7423 87.5202 28.5238L88.253 29.2042ZM89.6346 25.216C89.6346 23.542 89.0897 22.193 87.9499 21.2472L87.3113 22.0168C88.1769 22.735 88.6346 23.7753 88.6346 25.216H89.6346ZM87.9547 21.2512C86.8335 20.297 85.3064 19.852 83.4386 19.852V20.852C85.1548 20.852 86.4224 21.2603 87.3066 22.0128L87.9547 21.2512ZM83.4386 19.852C81.6653 19.852 80.3507 19.9155 79.5186 20.0504L79.6787 21.0376C80.4252 20.9165 81.6706 20.852 83.4386 20.852V19.852ZM79.0987 20.5352C79.056 22.9699 79.0346 25.2981 79.0346 27.52H80.0346C80.0346 25.3045 80.0559 22.9821 80.0986 20.5528L79.0987 20.5352ZM79.6446 19.5059C81.0247 19.3785 82.1167 19.316 82.9266 19.316V18.316C82.0725 18.316 80.9459 18.3815 79.5527 18.5101L79.6446 19.5059ZM82.9266 19.316C83.7521 19.316 84.4087 19.3372 84.9011 19.3783L84.9841 18.3817C84.4526 18.3374 83.7651 18.316 82.9266 18.316V19.316ZM85.0847 19.3594C86.3264 18.9915 87.2739 18.3417 87.8645 17.382L87.0128 16.858C86.5794 17.5623 85.8628 18.0859 84.8006 18.4006L85.0847 19.3594ZM87.8645 17.382C88.4217 16.4766 88.7066 15.5119 88.7066 14.496H87.7066C87.7066 15.3147 87.4796 16.0994 87.0128 16.858L87.8645 17.382ZM88.7066 14.496C88.7066 13.503 88.5376 12.632 88.1738 11.9044L87.2794 12.3516C87.5556 12.904 87.7066 13.6117 87.7066 14.496H88.7066ZM88.1767 11.9102C87.834 11.2019 87.4128 10.642 86.8934 10.2784L86.3199 11.0976C86.6538 11.3313 86.9793 11.7315 87.2765 12.3458L88.1767 11.9102ZM86.8954 10.2798C86.4447 9.96106 86.0377 9.71177 85.6773 9.54043C85.3251 9.37297 84.9766 9.26 84.6546 9.26V10.26C84.7593 10.26 84.9495 10.3017 85.2479 10.4436C85.5382 10.5816 85.8938 10.7963 86.3179 11.0962L86.8954 10.2798ZM84.6546 9.26C83.4739 9.26 82.4932 9.29214 81.7165 9.35777C80.9518 9.4224 80.3445 9.5223 79.9351 9.67583L80.2862 10.6122C80.5594 10.5097 81.0508 10.4176 81.8007 10.3542C82.5387 10.2919 83.4887 10.26 84.6546 10.26V9.26ZM79.7728 9.77542L79.3888 10.1274L80.0645 10.8646L80.4485 10.5126L79.7728 9.77542ZM79.2267 10.4854C79.1627 13.4953 79.12 16.3349 79.0986 19.004L80.0986 19.012C80.1199 16.3478 80.1626 13.5127 80.2265 10.5066L79.2267 10.4854ZM111.004 27.264L110.504 27.2598V27.264H111.004ZM111.068 19.68L111.568 19.6842V19.68H111.068ZM110.652 17.152L110.404 17.5863L110.415 17.5922L110.652 17.152ZM108.828 17.024L108.329 17.0542L108.357 17.524H108.828V17.024ZM108.764 15.968L108.719 15.47L108.235 15.5134L108.265 15.9982L108.764 15.968ZM112.348 15.488L112.462 15.9748L112.472 15.9722L112.348 15.488ZM114.012 23.52L113.512 23.5032L114.012 23.52ZM114.588 29.888L114.161 30.1487L114.166 30.1557L114.17 30.1626L114.588 29.888ZM115.036 31.456L115.192 31.931L115.194 31.9303L115.036 31.456ZM111.964 31.744L111.523 31.9793L111.532 31.9973L111.543 32.0144L111.964 31.744ZM111.228 29.888L111.581 29.5344L111.285 29.2378L110.941 29.4784L111.228 29.888ZM107.708 31.776L107.86 32.2523L107.869 32.2494L107.708 31.776ZM103.068 31.36L102.738 31.7356L102.743 31.7404L103.068 31.36ZM101.66 29.056L102.144 28.9321L102.141 28.9194L102.137 28.9069L101.66 29.056ZM101.052 17.728L101.542 17.6278L101.538 17.609L101.533 17.5906L101.052 17.728ZM100.636 17.344L100.843 16.8888V16.8888L100.636 17.344ZM100.092 17.184L100.01 17.6772L100.05 17.684H100.092V17.184ZM99.2599 17.152L98.7607 17.1814L98.7884 17.652H99.2599V17.152ZM99.1959 16.064L99.1415 15.567L98.6688 15.6187L98.6967 16.0934L99.1959 16.064ZM102.428 15.52L102.297 15.0373L102.428 15.52ZM104.316 15.68L104.816 15.6868V15.68H104.316ZM104.188 25.024L103.688 25.0172V25.024H104.188ZM104.444 28.16L103.97 28.3181L103.972 28.3269L103.976 28.3356L104.444 28.16ZM105.308 29.344L105.015 29.7495L105.026 29.7567L105.308 29.344ZM108.156 29.536L108.055 29.0463L108.052 29.0469L108.156 29.536ZM109.916 28.96L110.148 29.403L110.155 29.3989L109.916 28.96ZM110.812 28.32L111.212 28.62L111.22 28.6089L111.228 28.5974L110.812 28.32ZM111.504 27.2682L111.568 19.6842L110.568 19.6758L110.504 27.2598L111.504 27.2682ZM111.568 19.68C111.568 18.9026 111.533 18.2762 111.457 17.8148C111.419 17.5853 111.368 17.3753 111.295 17.2006C111.227 17.039 111.109 16.8302 110.889 16.7118L110.415 17.5922C110.334 17.5485 110.337 17.501 110.373 17.5874C110.404 17.6607 110.439 17.7854 110.471 17.9772C110.533 18.3585 110.568 18.9214 110.568 19.68H111.568ZM110.9 16.7179C110.626 16.5615 110.24 16.524 109.852 16.524V17.524C110.027 17.524 110.162 17.5339 110.261 17.5497C110.31 17.5575 110.346 17.5661 110.371 17.5739C110.396 17.5818 110.406 17.5871 110.404 17.5861L110.9 16.7179ZM109.852 16.524H108.828V17.524H109.852V16.524ZM109.327 16.9938L109.263 15.9378L108.265 15.9982L108.329 17.0542L109.327 16.9938ZM108.809 16.466C110.475 16.3165 111.7 16.1541 112.462 15.9747L112.233 15.0013C111.545 15.1632 110.381 15.3208 108.719 15.47L108.809 16.466ZM112.472 15.9722C112.845 15.8765 113.129 15.8054 113.327 15.7585C113.427 15.735 113.501 15.7183 113.552 15.7079C113.627 15.6925 113.609 15.7 113.564 15.7V14.7C113.486 14.7 113.394 14.7195 113.352 14.7281C113.286 14.7417 113.2 14.761 113.097 14.7855C112.889 14.8346 112.598 14.9075 112.223 15.0038L112.472 15.9722ZM113.564 15.7C113.627 15.7 113.664 15.7067 113.682 15.7118C113.699 15.7164 113.692 15.7175 113.676 15.7041C113.668 15.6976 113.66 15.6893 113.653 15.6797C113.646 15.6701 113.642 15.6616 113.64 15.6557C113.635 15.6444 113.64 15.649 113.64 15.68H114.64C114.64 15.4165 114.556 15.1363 114.316 14.9359C114.093 14.75 113.813 14.7 113.564 14.7V15.7ZM113.64 15.68C113.64 18.3627 113.597 20.9704 113.512 23.5032L114.512 23.5368C114.597 20.9922 114.64 18.3733 114.64 15.68H113.64ZM113.512 23.5032C113.427 26.0371 113.384 27.552 113.384 28.032H114.384C114.384 27.5733 114.426 26.0802 114.512 23.5368L113.512 23.5032ZM113.384 28.032C113.384 28.6448 113.681 29.3625 114.161 30.1487L115.015 29.6273C114.556 28.8775 114.384 28.3579 114.384 28.032H113.384ZM114.17 30.1626C114.413 30.5324 114.59 30.8171 114.704 31.0206C114.761 31.1231 114.798 31.1965 114.819 31.245C114.851 31.3173 114.824 31.2827 114.824 31.2H115.824C115.824 31.0533 115.767 30.9161 115.737 30.847C115.696 30.7542 115.641 30.6476 115.576 30.5314C115.445 30.2976 115.253 29.9902 115.006 29.6134L114.17 30.1626ZM114.824 31.2C114.824 31.1485 114.836 31.0974 114.859 31.0524C114.88 31.0095 114.905 30.9831 114.92 30.9703C114.943 30.9496 114.942 30.9601 114.878 30.9817L115.194 31.9303C115.321 31.8879 115.465 31.8238 115.584 31.7177C115.715 31.6013 115.824 31.4251 115.824 31.2H114.824ZM114.88 30.981C114.135 31.2257 113.557 31.4076 113.144 31.5279C112.937 31.5882 112.776 31.6316 112.659 31.6595C112.523 31.6917 112.489 31.692 112.508 31.692V32.692C112.623 32.692 112.766 32.6617 112.889 32.6325C113.03 32.5991 113.209 32.5505 113.424 32.4881C113.853 32.363 114.443 32.177 115.192 31.931L114.88 30.981ZM112.508 31.692C112.576 31.692 112.596 31.7225 112.562 31.694C112.526 31.6646 112.465 31.5993 112.384 31.4736L111.543 32.0144C111.655 32.1874 111.78 32.3461 111.926 32.466C112.073 32.5868 112.27 32.692 112.508 32.692V31.692ZM112.405 31.5087C112.251 31.2196 112.101 30.8628 111.958 30.4339L111.01 30.7501C111.165 31.2172 111.336 31.6284 111.523 31.9793L112.405 31.5087ZM111.958 30.4339C111.883 30.2087 111.823 30.0329 111.778 29.9091C111.756 29.848 111.735 29.7942 111.717 29.7517C111.709 29.731 111.698 29.7065 111.686 29.6824C111.686 29.6816 111.65 29.6029 111.581 29.5344L110.874 30.2416C110.833 30.2005 110.81 30.1623 110.806 30.1552C110.798 30.1419 110.793 30.1322 110.792 30.1296C110.789 30.1242 110.79 30.125 110.794 30.1363C110.803 30.1578 110.818 30.1947 110.838 30.2509C110.878 30.3618 110.935 30.5273 111.01 30.7501L111.958 30.4339ZM110.941 29.4784C109.686 30.3569 108.555 30.9598 107.547 31.3026L107.869 32.2494C108.994 31.8669 110.21 31.2111 111.515 30.2976L110.941 29.4784ZM107.555 31.2998C106.509 31.6347 105.702 31.788 105.116 31.788V32.788C105.853 32.788 106.773 32.6 107.86 32.2522L107.555 31.2998ZM105.116 31.788C104.641 31.788 104.07 31.5577 103.392 30.9796L102.743 31.7404C103.516 32.3997 104.311 32.788 105.116 32.788V31.788ZM103.398 30.9844C102.77 30.4329 102.354 29.753 102.144 28.9321L101.175 29.1799C101.435 30.1937 101.957 31.0497 102.738 31.7356L103.398 30.9844ZM102.137 28.9069C101.95 28.3075 101.84 27.059 101.84 25.088H100.84C100.84 27.0423 100.943 28.4392 101.183 29.2051L102.137 28.9069ZM101.84 25.088V19.936H100.84V25.088H101.84ZM101.84 19.936C101.84 19.3524 101.736 18.5778 101.542 17.6278L100.562 17.8282C100.752 18.7555 100.84 19.4529 100.84 19.936H101.84ZM101.533 17.5906C101.43 17.2299 101.125 17.0173 100.843 16.8888L100.429 17.7992C100.514 17.838 100.558 17.87 100.577 17.8874C100.593 17.9026 100.58 17.8962 100.571 17.8654L101.533 17.5906ZM100.843 16.8888C100.596 16.7766 100.332 16.684 100.092 16.684V17.684C100.091 17.684 100.118 17.6847 100.183 17.7037C100.245 17.7218 100.326 17.7523 100.429 17.7992L100.843 16.8888ZM100.174 16.6908C99.9976 16.6614 99.6767 16.652 99.2599 16.652V17.652C99.6964 17.652 99.9302 17.6639 100.01 17.6772L100.174 16.6908ZM99.759 17.1226L99.695 16.0346L98.6967 16.0934L98.7607 17.1814L99.759 17.1226ZM99.2502 16.561C100.627 16.4105 101.733 16.2258 102.558 16.0027L102.297 15.0373C101.544 15.2409 100.496 15.4188 99.1415 15.567L99.2502 16.561ZM102.558 16.0027C102.952 15.8964 103.254 15.8176 103.466 15.7658C103.573 15.7397 103.653 15.7214 103.71 15.7099C103.785 15.6945 103.778 15.7 103.74 15.7V14.7C103.659 14.7 103.565 14.7188 103.51 14.7301C103.436 14.7453 103.341 14.7669 103.229 14.7942C103.005 14.849 102.693 14.9303 102.297 15.0373L102.558 16.0027ZM103.74 15.7C103.803 15.7 103.84 15.7067 103.858 15.7118C103.875 15.7164 103.868 15.7175 103.852 15.7041C103.844 15.6976 103.836 15.6893 103.829 15.6797C103.822 15.6701 103.818 15.6616 103.816 15.6557C103.811 15.6444 103.816 15.649 103.816 15.68H104.816C104.816 15.4165 104.732 15.1363 104.492 14.9359C104.269 14.75 103.989 14.7 103.74 14.7V15.7ZM103.816 15.6732L103.688 25.0172L104.688 25.0308L104.816 15.6868L103.816 15.6732ZM103.688 25.024C103.688 25.8209 103.709 26.4916 103.754 27.0327C103.797 27.5653 103.865 28.0034 103.97 28.3181L104.918 28.0019C104.852 27.8046 104.792 27.464 104.75 26.9513C104.709 26.4471 104.688 25.8058 104.688 25.024H103.688ZM103.976 28.3356C104.197 28.9251 104.54 29.4059 105.015 29.7493L105.601 28.9387C105.308 28.7275 105.075 28.4189 104.912 27.9844L103.976 28.3356ZM105.026 29.7567C105.491 30.0751 105.982 30.26 106.492 30.26V29.26C106.233 29.26 105.936 29.1676 105.59 28.9313L105.026 29.7567ZM106.492 30.26C106.949 30.26 107.543 30.177 108.26 30.0251L108.052 29.0469C107.36 29.1936 106.845 29.26 106.492 29.26V30.26ZM108.257 30.0257C109.009 29.8709 109.644 29.6667 110.148 29.4029L109.684 28.5171C109.292 28.7226 108.754 28.9024 108.055 29.0463L108.257 30.0257ZM110.155 29.3989C110.4 29.2652 110.611 29.1372 110.782 29.0149C110.948 28.8966 111.103 28.7655 111.212 28.62L110.412 28.02C110.393 28.0451 110.334 28.1061 110.201 28.2011C110.074 28.2921 109.901 28.3988 109.676 28.5211L110.155 29.3989ZM111.228 28.5974C111.345 28.422 111.41 28.2115 111.448 28.0014C111.487 27.7863 111.504 27.5383 111.504 27.264H110.504C110.504 27.5017 110.489 27.6857 110.464 27.8226C110.438 27.9645 110.407 28.026 110.396 28.0427L111.228 28.5974ZM124.881 11.872L124.491 12.1844L124.497 12.1921L124.881 11.872ZM124.753 9.376L124.318 9.12941L124.312 9.14071L124.753 9.376ZM127.153 9.024L126.826 9.40254L126.837 9.41098L127.153 9.024ZM127.185 11.904L126.809 11.5747L126.808 11.5759L127.185 11.904ZM122.353 32H121.853V32.5H122.353V32ZM122.353 30.912L122.314 30.4135L121.853 30.4497V30.912H122.353ZM124.401 30.496L124.686 30.9071L124.696 30.9L124.706 30.8923L124.401 30.496ZM124.657 18.688L124.161 18.7464L124.161 18.7536L124.162 18.7607L124.657 18.688ZM124.209 17.312L123.856 17.6656L123.865 17.6749L123.875 17.6836L124.209 17.312ZM122.513 16.992L122.014 17.0222L122.043 17.492H122.513V16.992ZM122.449 15.936L122.402 15.4382L121.921 15.4837L121.95 15.9662L122.449 15.936ZM125.969 15.456L126.078 15.9442L126.087 15.9418L125.969 15.456ZM127.761 17.792L128.261 17.8013V17.8013L127.761 17.792ZM128.145 30.56L127.88 30.984L127.89 30.9901L127.9 30.9958L128.145 30.56ZM129.777 30.912H130.277V30.4398L129.806 30.4128L129.777 30.912ZM129.777 32V32.5H130.277V32H129.777ZM126.033 12.14C125.933 12.14 125.679 12.048 125.265 11.5519L124.497 12.1921C124.937 12.72 125.451 13.14 126.033 13.14V12.14ZM125.272 11.5597C125.067 11.3043 124.926 11.0992 124.838 10.9412C124.743 10.7691 124.741 10.7065 124.741 10.72H123.741C123.741 10.9681 123.846 11.2149 123.964 11.4268C124.09 11.6528 124.268 11.9064 124.491 12.1843L125.272 11.5597ZM124.741 10.72C124.741 10.6849 124.757 10.5779 124.836 10.37C124.911 10.1728 125.029 9.92112 125.194 9.61129L124.312 9.14071C124.136 9.47087 123.997 9.76316 123.902 10.014C123.81 10.2541 123.741 10.4991 123.741 10.72H124.741ZM125.188 9.62251C125.541 8.99951 125.786 8.916 125.873 8.916V7.916C125.192 7.916 124.69 8.47249 124.318 9.12949L125.188 9.62251ZM125.873 8.916C126.082 8.916 126.395 9.03023 126.826 9.40241L127.48 8.64559C126.972 8.2071 126.432 7.916 125.873 7.916V8.916ZM126.837 9.41098C127.214 9.71947 127.357 10.0342 127.357 10.368H128.357C128.357 9.67779 128.031 9.09652 127.47 8.63702L126.837 9.41098ZM127.357 10.368C127.357 10.7238 127.204 11.1235 126.809 11.5747L127.561 12.2333C128.063 11.6605 128.357 11.0362 128.357 10.368H127.357ZM126.808 11.5759C126.398 12.0471 126.143 12.14 126.033 12.14V13.14C126.606 13.14 127.119 12.7422 127.562 12.2321L126.808 11.5759ZM122.853 32V30.912H121.853V32H122.853ZM122.392 31.4105C122.947 31.367 123.412 31.309 123.781 31.234C124.133 31.1625 124.458 31.0645 124.686 30.9071L124.117 30.0849C124.066 30.1195 123.912 30.1868 123.582 30.254C123.268 30.3177 122.848 30.3717 122.314 30.4135L122.392 31.4105ZM124.706 30.8923C125.178 30.5291 125.317 29.8896 125.317 29.216H124.317C124.317 29.8224 124.179 30.0363 124.096 30.0997L124.706 30.8923ZM125.317 29.216V22.56H124.317V29.216H125.317ZM125.317 22.56C125.317 20.7054 125.264 19.3811 125.152 18.6153L124.162 18.7607C124.263 19.4456 124.317 20.7026 124.317 22.56H125.317ZM125.154 18.6296C125.109 18.249 125.045 17.9175 124.957 17.6452C124.871 17.3826 124.746 17.1224 124.544 16.9404L123.875 17.6836C123.886 17.6936 123.942 17.7587 124.006 17.9548C124.066 18.1412 124.12 18.4016 124.161 18.7464L125.154 18.6296ZM124.563 16.9584C124.198 16.5938 123.61 16.492 122.993 16.492V17.492C123.571 17.492 123.794 17.6036 123.856 17.6656L124.563 16.9584ZM122.993 16.492H122.513V17.492H122.993V16.492ZM123.012 16.9618L122.948 15.9058L121.95 15.9662L122.014 17.0222L123.012 16.9618ZM122.496 16.4338C124.079 16.284 125.278 16.1218 126.078 15.9441L125.861 14.9679C125.124 15.1315 123.976 15.2893 122.402 15.4382L122.496 16.4338ZM126.087 15.9418C126.481 15.846 126.782 15.7748 126.991 15.7278C127.096 15.7042 127.175 15.6874 127.229 15.6767C127.308 15.6613 127.292 15.668 127.249 15.668V14.668C127.174 14.668 127.081 14.6867 127.037 14.6953C126.969 14.7086 126.88 14.7278 126.771 14.7522C126.554 14.8012 126.246 14.874 125.851 14.9702L126.087 15.9418ZM127.249 15.668C127.302 15.668 127.329 15.6744 127.337 15.6771C127.341 15.6782 127.34 15.6781 127.335 15.6754C127.33 15.6725 127.322 15.6676 127.314 15.6601C127.306 15.6526 127.3 15.6445 127.295 15.6368C127.29 15.6292 127.288 15.624 127.288 15.6229C127.287 15.6216 127.293 15.6376 127.293 15.68H128.293C128.293 15.4242 128.224 15.1427 128 14.9319C127.782 14.7265 127.5 14.668 127.249 14.668V15.668ZM127.293 15.68C127.293 15.9302 127.283 16.6287 127.261 17.7827L128.261 17.8013C128.282 16.6513 128.293 15.9418 128.293 15.68H127.293ZM127.261 17.7827C127.176 22.35 127.133 26.2893 127.133 29.6H128.133C128.133 26.2974 128.176 22.3646 128.261 17.8013L127.261 17.7827ZM127.133 29.6C127.133 30.1866 127.382 30.6729 127.88 30.984L128.41 30.136C128.225 30.0205 128.133 29.8668 128.133 29.6H127.133ZM127.9 30.9958C128.344 31.2456 128.983 31.3674 129.749 31.4112L129.806 30.4128C129.078 30.3712 128.629 30.2584 128.39 30.1242L127.9 30.9958ZM129.277 30.912V32H130.277V30.912H129.277ZM129.777 31.5H122.353V32.5H129.777V31.5ZM136.376 32H135.876V32.5H136.376V32ZM136.376 30.912L136.314 30.4159L135.876 30.4706V30.912H136.376ZM137.048 30.816L137.124 31.3102L137.143 31.3074L137.161 31.3032L137.048 30.816ZM137.592 30.72V31.22H137.654L137.714 31.2051L137.592 30.72ZM137.976 30.592L137.818 30.1177L137.809 30.1206L137.801 30.1238L137.976 30.592ZM138.328 30.432L138.682 30.7856L138.328 30.432ZM138.552 30.176L138.168 29.8559L138.552 30.176ZM138.712 29.792L138.219 29.7098L138.212 29.7506V29.792H138.712ZM138.808 29.28L139.299 29.3781L139.3 29.3694L138.808 29.28ZM138.776 11.136L139.276 11.1294L139.276 11.1256L138.776 11.136ZM138.744 9.6L139.244 9.58958L139.244 9.58001L138.744 9.6ZM138.36 8.576L138.629 8.15417L138.629 8.15417L138.36 8.576ZM136.536 8.352L136.037 8.38225L136.066 8.852H136.536V8.352ZM136.472 7.296L136.412 6.79966L135.945 6.85648L135.973 7.32625L136.472 7.296ZM139.992 6.752L140.101 7.24026L140.114 7.23707L139.992 6.752ZM141.816 6.944H141.316L141.317 6.95619L141.816 6.944ZM141.72 21.92L142.22 21.938L142.22 21.9378L141.72 21.92ZM141.912 30.464L141.596 30.851L141.615 30.8665L141.635 30.88L141.912 30.464ZM143.928 30.912H144.428V30.4674L143.987 30.4154L143.928 30.912ZM143.928 32V32.5H144.428V32H143.928ZM136.876 32V30.912H135.876V32H136.876ZM136.438 31.4081C136.616 31.386 136.845 31.3532 137.124 31.3102L136.972 30.3218C136.697 30.3641 136.478 30.3954 136.314 30.4159L136.438 31.4081ZM137.161 31.3032C137.295 31.2722 137.4 31.2503 137.479 31.2364C137.566 31.221 137.596 31.22 137.592 31.22V30.22C137.439 30.22 137.199 30.268 136.936 30.3288L137.161 31.3032ZM137.714 31.2051C137.828 31.1765 137.978 31.1254 138.152 31.0602L137.801 30.1238C137.633 30.1866 137.527 30.2209 137.471 30.2349L137.714 31.2051ZM138.134 31.0663C138.239 31.0315 138.334 30.9959 138.415 30.9592C138.481 30.9294 138.592 30.875 138.682 30.7856L137.975 30.0784C137.991 30.0624 138.004 30.0518 138.012 30.0464C138.019 30.0407 138.024 30.0378 138.025 30.0373C138.026 30.0366 138.02 30.0406 138.001 30.0488C137.965 30.0654 137.906 30.0885 137.818 30.1177L138.134 31.0663ZM138.682 30.7856C138.743 30.7245 138.831 30.6223 138.936 30.4961L138.168 29.8559C138.06 29.9857 137.999 30.0541 137.975 30.0784L138.682 30.7856ZM138.936 30.4961C139.095 30.3057 139.212 30.0684 139.212 29.792H138.212C138.212 29.7847 138.214 29.7835 138.211 29.7917C138.207 29.8012 138.196 29.8229 138.168 29.8559L138.936 30.4961ZM139.206 29.8742C139.226 29.7538 139.256 29.5891 139.299 29.3781L138.318 29.1819C138.275 29.3975 138.242 29.5742 138.219 29.7098L139.206 29.8742ZM139.3 29.3694C139.349 29.1032 139.372 28.8278 139.372 28.544H138.372C138.372 28.7722 138.353 28.9875 138.316 29.1906L139.3 29.3694ZM139.372 28.544V21.664H138.372V28.544H139.372ZM139.372 21.664C139.372 19.4631 139.34 15.9509 139.276 11.1294L138.276 11.1426C138.34 15.9637 138.372 19.4702 138.372 21.664H139.372ZM139.276 11.1256L139.244 9.58958L138.244 9.61041L138.276 11.1464L139.276 11.1256ZM139.244 9.58001C139.222 9.02424 139.089 8.44687 138.629 8.15417L138.092 8.99783C138.101 9.0038 138.224 9.10909 138.245 9.61998L139.244 9.58001ZM138.629 8.15417C138.427 8.02557 138.172 7.95574 137.911 7.91421C137.641 7.87129 137.319 7.852 136.952 7.852V8.852C137.289 8.852 137.554 8.87004 137.754 8.90179C137.962 8.93493 138.059 8.9771 138.092 8.99783L138.629 8.15417ZM136.952 7.852H136.536V8.852H136.952V7.852ZM137.035 8.32175L136.971 7.26575L135.973 7.32625L136.037 8.38225L137.035 8.32175ZM136.533 7.79234C138.115 7.59993 139.308 7.41628 140.101 7.24009L139.884 6.26391C139.141 6.42905 137.987 6.60807 136.412 6.79966L136.533 7.79234ZM140.114 7.23707C140.496 7.1414 140.791 7.07051 140.998 7.0238C141.102 7.00037 141.181 6.98384 141.237 6.97343C141.309 6.95986 141.305 6.964 141.272 6.964V5.964C141.197 5.964 141.108 5.98014 141.052 5.99056C140.98 6.00416 140.888 6.02363 140.779 6.04819C140.56 6.09749 140.256 6.1706 139.871 6.26693L140.114 7.23707ZM141.272 6.964C141.328 6.964 141.358 6.9703 141.369 6.97368C141.379 6.97658 141.368 6.97493 141.35 6.95892C141.341 6.95124 141.333 6.94224 141.326 6.93265C141.32 6.92318 141.316 6.91531 141.315 6.9107C141.311 6.90219 141.316 6.91 141.316 6.944H142.316C142.316 6.68956 142.241 6.41221 142.011 6.20908C141.793 6.01648 141.516 5.964 141.272 5.964V6.964ZM141.317 6.95619C141.359 8.7 141.38 10.8823 141.38 13.504H142.38C142.38 10.8777 142.359 8.68667 142.316 6.93181L141.317 6.95619ZM141.38 13.504C141.38 16.1213 141.327 18.9206 141.221 21.9022L142.22 21.9378C142.327 18.946 142.38 16.1347 142.38 13.504H141.38ZM141.221 21.902C141.114 24.8698 141.06 27.2233 141.06 28.96H142.06C142.06 27.2407 142.113 24.9009 142.22 21.938L141.221 21.902ZM141.06 28.96C141.06 29.3845 141.091 29.755 141.162 30.0579C141.229 30.3481 141.352 30.6512 141.596 30.851L142.229 30.077C142.239 30.0848 142.185 30.0412 142.135 29.8301C142.089 29.6317 142.06 29.3462 142.06 28.96H141.06ZM141.635 30.88C141.847 31.0213 142.16 31.1165 142.5 31.1921C142.859 31.2719 143.318 31.3436 143.87 31.4086L143.987 30.4154C143.451 30.3524 143.03 30.2854 142.717 30.2159C142.385 30.1422 142.234 30.0774 142.19 30.048L141.635 30.88ZM143.428 30.912V32H144.428V30.912H143.428ZM143.928 31.5H136.376V32.5H143.928V31.5ZM161.182 15.552L161.069 16.0389L161.691 16.1841L161.682 15.5453L161.182 15.552ZM161.118 10.752H160.618L160.618 10.7587L161.118 10.752ZM161.086 9.344H160.586V9.3648L160.588 9.38552L161.086 9.344ZM160.766 8.64L160.413 8.99355L160.422 9.00285L160.432 9.01165L160.766 8.64ZM160.158 8.352L160.103 8.84894L160.13 8.852H160.158V8.352ZM158.878 8.288L158.379 8.31825L158.407 8.77305L158.862 8.78774L158.878 8.288ZM158.814 7.232L158.768 6.73411L158.286 6.77855L158.315 7.26225L158.814 7.232ZM162.398 6.752L162.507 7.24026L162.519 7.23707L162.398 6.752ZM164.062 20.192L163.562 20.1819L163.562 20.1844L164.062 20.192ZM164.766 29.92L164.348 30.1949L164.353 30.2023L164.766 29.92ZM165.31 31.392L165.486 31.8602L165.5 31.8549L165.513 31.8489L165.31 31.392ZM164.638 31.616L164.785 32.0939L164.638 31.616ZM163.55 32.032L163.353 31.5724L163.345 31.576L163.55 32.032ZM162.142 31.808L161.69 32.021L161.695 32.0316L162.142 31.808ZM161.63 30.624L161.158 30.7892L161.162 30.7995L161.166 30.8097L161.63 30.624ZM161.246 29.824L161.6 29.4704L161.228 29.0985L160.875 29.4888L161.246 29.824ZM153.278 30.72L153.598 30.3358L153.589 30.3284L153.278 30.72ZM151.454 28.16L150.995 28.359L151.454 28.16ZM150.91 21.184L150.415 21.1116L150.91 21.184ZM151.326 19.168L151.803 19.3196L151.804 19.3136L151.326 19.168ZM151.998 17.856L151.614 17.5359L151.609 17.5424L151.603 17.549L151.998 17.856ZM152.702 17.088L152.402 16.688L152.389 16.6978L152.377 16.7084L152.702 17.088ZM153.502 16.576L153.756 17.007L153.502 16.576ZM154.59 15.936L154.844 16.367L154.849 16.3639L154.59 15.936ZM154.782 28.064L154.379 28.3604L154.386 28.3689L154.782 28.064ZM161.214 28.288L161.56 28.6492L161.714 28.5015V28.288H161.214ZM161.15 20.352L160.65 20.3588L160.65 20.3657L161.15 20.352ZM161.118 17.856H161.618V17.5719L161.374 17.4264L161.118 17.856ZM155.774 17.152L155.908 17.6338L155.916 17.6314L155.925 17.6288L155.774 17.152ZM154.622 17.92L154.976 18.2737L154.985 18.2639L154.622 17.92ZM161.682 15.5453L161.618 10.7453L160.618 10.7587L160.682 15.5587L161.682 15.5453ZM161.618 10.752C161.618 10.0709 161.608 9.58198 161.584 9.30248L160.588 9.38552C160.607 9.61802 160.618 10.0678 160.618 10.752H161.618ZM161.586 9.344C161.586 8.9194 161.415 8.55141 161.101 8.26835L160.432 9.01165C160.544 9.11259 160.586 9.21393 160.586 9.344H161.586ZM161.12 8.28645C160.861 8.02753 160.538 7.852 160.158 7.852V8.852C160.205 8.852 160.287 8.86847 160.413 8.99355L161.12 8.28645ZM160.213 7.85506C159.998 7.83113 159.55 7.80942 158.894 7.78826L158.862 8.78774C159.529 8.80924 159.934 8.8302 160.103 8.84894L160.213 7.85506ZM159.377 8.25775L159.313 7.20175L158.315 7.26225L158.379 8.31825L159.377 8.25775ZM158.86 7.72989C160.485 7.58021 161.706 7.41799 162.507 7.24009L162.29 6.26391C161.554 6.42734 160.386 6.58512 158.768 6.73411L158.86 7.72989ZM162.519 7.23707C162.902 7.1413 163.195 7.07017 163.399 7.02319C163.501 6.99962 163.577 6.98288 163.63 6.97229C163.707 6.95692 163.69 6.964 163.646 6.964V5.964C163.57 5.964 163.477 5.98308 163.434 5.99171C163.367 6.00512 163.28 6.02438 163.174 6.0488C162.961 6.09783 162.662 6.1707 162.277 6.26693L162.519 7.23707ZM163.646 6.964C163.699 6.964 163.726 6.97042 163.734 6.97307C163.738 6.97423 163.737 6.97415 163.732 6.97138C163.727 6.96849 163.719 6.96355 163.711 6.9561C163.703 6.9486 163.697 6.94047 163.692 6.93278C163.687 6.92524 163.685 6.92005 163.685 6.91892C163.684 6.91756 163.69 6.93355 163.69 6.976H164.69C164.69 6.72025 164.621 6.43865 164.397 6.2279C164.179 6.0225 163.897 5.964 163.646 5.964V6.964ZM163.69 6.976C163.69 11.5596 163.647 15.9615 163.562 20.1819L164.562 20.2021C164.647 15.9745 164.69 11.5658 164.69 6.976H163.69ZM163.562 20.1844C163.498 24.3848 163.466 26.8645 163.466 27.616H164.466C164.466 26.8742 164.498 24.4045 164.562 20.1996L163.562 20.1844ZM163.466 27.616C163.466 28.4669 163.779 29.3295 164.348 30.1948L165.184 29.6452C164.686 28.8892 164.466 28.2157 164.466 27.616H163.466ZM164.353 30.2023C164.63 30.6068 164.836 30.9122 164.971 31.1205C165.039 31.2254 165.086 31.301 165.116 31.3504C165.123 31.3623 165.128 31.3717 165.132 31.3789C165.134 31.3824 165.136 31.3851 165.137 31.387C165.138 31.3889 165.138 31.3898 165.138 31.3896C165.138 31.3895 165.137 31.3877 165.135 31.3844C165.134 31.3813 165.131 31.3749 165.128 31.3661C165.125 31.358 165.119 31.3421 165.113 31.3207C165.109 31.3035 165.098 31.2589 165.098 31.2H166.098C166.098 31.0971 166.065 31.0174 166.062 31.0089C166.051 30.9817 166.04 30.9582 166.032 30.9424C166.016 30.9097 165.996 30.8747 165.977 30.8416C165.936 30.7737 165.88 30.684 165.809 30.5755C165.667 30.3571 165.457 30.0439 165.179 29.6377L164.353 30.2023ZM165.098 31.2C165.098 31.1103 165.123 31.0394 165.146 30.9934C165.169 30.9483 165.194 30.9178 165.208 30.9015C165.236 30.8709 165.256 30.8589 165.249 30.864C165.236 30.8724 165.195 30.8962 165.107 30.9351L165.513 31.8489C165.618 31.8024 165.72 31.7516 165.803 31.696C165.844 31.6691 165.9 31.6277 165.952 31.5705C165.994 31.5234 166.098 31.3947 166.098 31.2H165.098ZM165.135 30.9238C164.977 30.9829 164.764 31.0542 164.491 31.1381L164.785 32.0939C165.067 32.0071 165.302 31.9291 165.486 31.8602L165.135 30.9238ZM164.491 31.1381C164.189 31.231 163.808 31.3774 163.353 31.5724L163.747 32.4916C164.188 32.3026 164.532 32.1717 164.785 32.0939L164.491 31.1381ZM163.345 31.576C163.141 31.6677 162.978 31.7317 162.853 31.772C162.791 31.792 162.742 31.8047 162.706 31.8121C162.668 31.8199 162.653 31.82 162.654 31.82V32.82C162.818 32.82 162.994 32.7769 163.159 32.724C163.333 32.6683 163.532 32.5883 163.755 32.488L163.345 31.576ZM162.654 31.82C162.748 31.82 162.783 31.8693 162.752 31.8384C162.72 31.8066 162.663 31.7315 162.589 31.5844L161.695 32.0316C161.792 32.2258 161.906 32.4067 162.045 32.5456C162.184 32.6854 162.389 32.82 162.654 32.82V31.82ZM162.595 31.5951C162.429 31.2426 162.262 30.8571 162.094 30.4383L161.166 30.8097C161.34 31.2442 161.514 31.6481 161.69 32.0209L162.595 31.5951ZM162.102 30.4588C162.024 30.2361 161.948 30.0439 161.873 29.8876C161.803 29.7426 161.715 29.5858 161.6 29.4704L160.893 30.1776C160.884 30.1688 160.913 30.1988 160.971 30.3204C161.024 30.4308 161.087 30.5852 161.158 30.7892L162.102 30.4588ZM160.875 29.4888C159.291 31.2419 158 31.98 156.99 31.98V32.98C158.455 32.98 160.001 31.9474 161.617 30.1592L160.875 29.4888ZM156.99 31.98C156.099 31.98 154.975 31.4833 153.598 30.3359L152.958 31.1041C154.397 32.3034 155.748 32.98 156.99 32.98V31.98ZM153.589 30.3284C152.946 29.8176 152.381 29.0402 151.913 27.961L150.995 28.359C151.508 29.5411 152.16 30.4704 152.967 31.1116L153.589 30.3284ZM151.913 27.961C151.451 26.8976 151.218 25.7393 151.218 24.48H150.218C150.218 25.8661 150.476 27.1611 150.995 28.359L151.913 27.961ZM151.218 24.48C151.218 23.1709 151.282 22.0985 151.405 21.2564L150.415 21.1116C150.283 22.0189 150.218 23.1437 150.218 24.48H151.218ZM151.405 21.2564C151.531 20.3911 151.666 19.7504 151.803 19.3196L150.85 19.0164C150.688 19.5243 150.545 20.2276 150.415 21.1116L151.405 21.2564ZM151.804 19.3136C151.937 18.8782 152.134 18.4962 152.393 18.163L151.603 17.549C151.265 17.9838 151.014 18.4765 150.848 19.0224L151.804 19.3136ZM152.382 18.1761C152.703 17.7907 152.914 17.565 153.028 17.4676L152.377 16.7084C152.192 16.867 151.933 17.1533 151.614 17.5359L152.382 18.1761ZM153.002 17.488C153.15 17.3773 153.397 17.2181 153.756 17.007L153.249 16.145C152.882 16.3606 152.596 16.5427 152.402 16.688L153.002 17.488ZM153.756 17.007L154.844 16.367L154.337 15.505L153.249 16.145L153.756 17.007ZM154.849 16.3639C155.687 15.8571 156.6 15.604 157.598 15.604V14.604C156.42 14.604 155.328 14.9055 154.331 15.5081L154.849 16.3639ZM157.598 15.604C158.663 15.604 159.819 15.7474 161.069 16.0389L161.296 15.0651C159.985 14.7593 158.752 14.604 157.598 14.604V15.604ZM153.034 22.688C153.034 25.1771 153.452 27.1003 154.379 28.3603L155.185 27.7677C154.448 26.7663 154.034 25.1056 154.034 22.688H153.034ZM154.386 28.3689C155.318 29.5802 156.49 30.228 157.886 30.228V29.228C156.85 29.228 155.953 28.7665 155.178 27.7591L154.386 28.3689ZM157.886 30.228C159.249 30.228 160.478 29.6846 161.56 28.6492L160.868 27.9268C159.945 28.8114 158.955 29.228 157.886 29.228V30.228ZM161.714 28.288C161.714 24.5546 161.693 21.9032 161.65 20.3383L160.65 20.3657C160.693 21.9155 160.714 24.5547 160.714 28.288H161.714ZM161.65 20.3452C161.629 18.763 161.618 17.9369 161.618 17.856H160.618C160.618 17.9458 160.629 18.7837 160.65 20.3588L161.65 20.3452ZM161.374 17.4264C160.274 16.7712 158.921 16.46 157.342 16.46V17.46C158.793 17.46 159.957 17.7461 160.862 18.2855L161.374 17.4264ZM157.342 16.46C156.674 16.46 156.096 16.5261 155.624 16.6752L155.925 17.6288C156.263 17.5219 156.73 17.46 157.342 17.46V16.46ZM155.64 16.6702C155.141 16.8091 154.682 17.1301 154.259 17.5761L154.985 18.2639C155.331 17.8993 155.64 17.7083 155.908 17.6338L155.64 16.6702ZM154.269 17.5664C153.811 18.0241 153.51 18.7076 153.319 19.5448C153.126 20.3893 153.034 21.4407 153.034 22.688H154.034C154.034 21.482 154.124 20.5121 154.294 19.7672C154.465 19.0151 154.708 18.5412 154.976 18.2736L154.269 17.5664ZM173.417 19.232L172.958 19.0335L172.957 19.0372L173.417 19.232ZM175.881 16.672L176.169 17.0807L176.174 17.0775L175.881 16.672ZM182.121 15.616L181.971 16.093L182.121 15.616ZM183.881 16.672L183.511 17.0084L183.519 17.0168L183.881 16.672ZM184.905 18.016L184.471 18.2641L184.478 18.2765L184.486 18.2885L184.905 18.016ZM185.449 19.648L184.953 19.712L184.954 19.7195L184.955 19.727L185.449 19.648ZM185.705 23.008L185.97 23.432L186.205 23.2851V23.008H185.705ZM175.785 23.648V23.148H175.285V23.648H175.785ZM176.297 28.032L175.856 28.2673L175.858 28.2714L176.297 28.032ZM178.217 29.792L178.071 30.2702L178.072 30.2703L178.217 29.792ZM185.033 27.744L185.394 27.3984L185.044 27.0315L184.682 27.388L185.033 27.744ZM185.737 28.48L186.091 28.8336L186.436 28.4878L186.098 28.1344L185.737 28.48ZM185.129 29.12L185.483 29.4736L185.488 29.4679L185.494 29.462L185.129 29.12ZM184.489 29.76L184.843 30.1136L184.489 29.76ZM183.881 30.368L184.221 30.7344L184.228 30.7281L184.235 30.7216L183.881 30.368ZM183.177 30.944L182.912 30.52L182.899 30.5282L182.887 30.5371L183.177 30.944ZM182.505 31.424L182.215 31.0171L182.207 31.0223L182.2 31.0277L182.505 31.424ZM181.769 31.872L181.583 31.4078L181.575 31.4113L181.566 31.4151L181.769 31.872ZM181.033 32.192L181.215 32.6576L181.223 32.6547L181.23 32.6516L181.033 32.192ZM176.009 31.744L175.761 32.1783L175.773 32.1849L176.009 31.744ZM173.993 29.696L174.436 29.4635L174.432 29.4557L173.993 29.696ZM175.849 22.208H175.349V22.708H175.849V22.208ZM182.729 21.632L183.021 22.0378L183.229 21.8881V21.632H182.729ZM182.281 19.264L181.822 19.4628L181.825 19.4698L182.281 19.264ZM176.521 18.432L176.101 18.1604L176.099 18.1636L176.521 18.432ZM173.876 19.4305C174.161 18.7709 174.889 17.9834 176.169 17.0807L175.593 16.2633C174.271 17.1953 173.356 18.1145 172.958 19.0335L173.876 19.4305ZM176.174 17.0775C177.433 16.1695 178.503 15.764 179.401 15.764V14.764C178.208 14.764 176.932 15.2972 175.589 16.2665L176.174 17.0775ZM179.401 15.764C180.434 15.764 181.287 15.878 181.971 16.093L182.271 15.139C181.462 14.8847 180.502 14.764 179.401 14.764V15.764ZM181.971 16.093C182.653 16.3073 183.157 16.6183 183.511 17.0083L184.251 16.3357C183.752 15.7871 183.083 15.3941 182.271 15.139L181.971 16.093ZM183.519 17.0168C183.923 17.4412 184.239 17.8572 184.471 18.2641L185.339 17.7679C185.06 17.2788 184.692 16.7988 184.243 16.3272L183.519 17.0168ZM184.486 18.2885C184.712 18.6359 184.875 19.1029 184.953 19.712L185.945 19.584C185.853 18.8704 185.653 18.2494 185.324 17.7435L184.486 18.2885ZM184.955 19.727C185.125 20.7871 185.205 21.5661 185.205 22.08H186.205C186.205 21.4845 186.115 20.6422 185.943 19.569L184.955 19.727ZM185.205 22.08V23.008H186.205V22.08H185.205ZM185.44 22.584C184.882 22.9329 183.882 23.148 182.345 23.148V24.148C183.923 24.148 185.163 23.9365 185.97 23.432L185.44 22.584ZM182.345 23.148H175.785V24.148H182.345V23.148ZM175.285 23.648C175.285 24.7994 175.328 25.7566 175.417 26.514C175.503 27.2562 175.639 27.8603 175.856 28.2673L176.738 27.7967C176.614 27.5637 176.494 27.1171 176.41 26.398C176.328 25.694 176.285 24.7793 176.285 23.648H175.285ZM175.858 28.2714C176.411 29.2857 177.141 29.986 178.071 30.2702L178.363 29.3138C177.757 29.1287 177.207 28.6556 176.736 27.7926L175.858 28.2714ZM178.072 30.2703C178.621 30.4375 179.248 30.516 179.945 30.516V29.516C179.32 29.516 178.795 29.4452 178.363 29.3137L178.072 30.2703ZM179.945 30.516C181.954 30.516 183.771 29.6908 185.384 28.1L184.682 27.388C183.223 28.8265 181.648 29.516 179.945 29.516V30.516ZM184.672 28.0896L185.376 28.8256L186.098 28.1344L185.394 27.3984L184.672 28.0896ZM185.384 28.1264C185.291 28.2187 185.082 28.4388 184.764 28.778L185.494 29.462C185.816 29.1186 186.012 28.9119 186.091 28.8336L185.384 28.1264ZM184.776 28.7664C184.456 29.0864 184.242 29.2998 184.136 29.4064L184.843 30.1136C184.949 30.0069 185.163 29.7936 185.483 29.4736L184.776 28.7664ZM184.136 29.4064C184.029 29.5131 183.826 29.7158 183.528 30.0144L184.235 30.7216C184.533 30.4229 184.736 30.2202 184.843 30.1136L184.136 29.4064ZM183.541 30.0016C183.247 30.2746 183.041 30.4396 182.912 30.52L183.442 31.368C183.655 31.2351 183.918 31.0161 184.221 30.7344L183.541 30.0016ZM182.887 30.5371C182.737 30.6438 182.513 30.8038 182.215 31.0171L182.796 31.8309C183.094 31.6175 183.318 31.4575 183.468 31.3509L182.887 30.5371ZM182.2 31.0277C181.942 31.226 181.738 31.3459 181.583 31.4078L181.955 32.3362C182.227 32.2274 182.513 32.0487 182.81 31.8203L182.2 31.0277ZM181.566 31.4151C181.377 31.4992 181.134 31.6049 180.836 31.7324L181.23 32.6516C181.53 32.5231 181.777 32.4155 181.972 32.3289L181.566 31.4151ZM180.851 31.7264C180.431 31.8907 179.919 31.98 179.305 31.98V32.98C180.014 32.98 180.654 32.8773 181.215 32.6576L180.851 31.7264ZM179.305 31.98C178.089 31.98 177.075 31.747 176.245 31.3031L175.773 32.1849C176.778 32.7223 177.962 32.98 179.305 32.98V31.98ZM176.257 31.3099C175.438 30.8417 174.836 30.2265 174.436 29.4636L173.55 29.9284C174.046 30.8722 174.788 31.6223 175.761 32.1781L176.257 31.3099ZM174.432 29.4557C173.626 27.9862 173.213 26.2165 173.213 24.128H172.213C172.213 26.3489 172.653 28.2911 173.555 29.9363L174.432 29.4557ZM173.213 24.128C173.213 21.9958 173.447 20.4437 173.878 19.4268L172.957 19.0372C172.448 20.239 172.213 21.9509 172.213 24.128H173.213ZM175.849 22.708H177.673V21.708H175.849V22.708ZM177.673 22.708C179.1 22.708 180.252 22.6599 181.122 22.5608C181.556 22.5113 181.931 22.4479 182.239 22.368C182.538 22.2902 182.814 22.1873 183.021 22.0378L182.437 21.2262C182.378 21.2687 182.243 21.3338 181.987 21.4C181.741 21.4641 181.417 21.5207 181.009 21.5672C180.193 21.6601 179.084 21.708 177.673 21.708V22.708ZM183.229 21.632C183.229 20.6618 183.071 19.7989 182.737 19.0582L181.825 19.4698C182.088 20.0518 182.229 20.7675 182.229 21.632H183.229ZM182.74 19.0652C182.431 18.3527 181.99 17.7883 181.402 17.4052C180.815 17.0223 180.118 16.844 179.337 16.844V17.844C179.964 17.844 180.462 17.9857 180.856 18.2428C181.25 18.4997 181.576 18.8953 181.822 19.4628L182.74 19.0652ZM179.337 16.844C177.869 16.844 176.71 17.2201 176.101 18.1604L176.941 18.7036C177.271 18.1932 177.989 17.844 179.337 17.844V16.844ZM176.099 18.1636C175.568 18.9989 175.349 20.3876 175.349 22.208H176.349C176.349 20.4017 176.579 19.2731 176.943 18.7004L176.099 18.1636ZM198.019 20.416L198.519 20.4178V20.416H198.019ZM197.987 29.088L197.487 29.0862V29.088H197.987ZM198.563 30.4L198.32 30.8371L198.329 30.8424L198.339 30.8472L198.563 30.4ZM200.291 30.848L200.222 31.3433L200.224 31.3435L200.291 30.848ZM201.571 31.008H202.071V30.508H201.571V31.008ZM201.571 32V32.5H202.071V32H201.571ZM192.611 32H192.111V32.5H192.611V32ZM192.611 30.912L192.549 30.4159L192.111 30.4706V30.912H192.611ZM193.635 30.816V31.316H193.666L193.697 31.3121L193.635 30.816ZM194.275 30.624L194.467 31.0855L194.476 31.0819L194.484 31.078L194.275 30.624ZM194.755 30.304L195.202 30.5276L195.211 30.509L195.219 30.4897L194.755 30.304ZM194.947 29.664L194.464 29.5352L194.947 29.664ZM194.851 18.624L195.341 18.5259L195.34 18.5235L194.851 18.624ZM192.995 17.376L192.495 17.4023L192.52 17.876H192.995V17.376ZM192.931 16.16L192.881 15.6625L192.406 15.7099L192.431 16.1863L192.931 16.16ZM195.555 15.552L195.723 16.0229L195.555 15.552ZM197.827 15.456L197.365 15.6483L197.368 15.6557L197.371 15.6629L197.827 15.456ZM197.987 16.768H197.486L197.487 16.7812L197.987 16.768ZM198.019 17.984L197.519 17.9972L197.549 19.1331L198.366 18.3436L198.019 17.984ZM204.099 15.552L203.828 15.9726L204.099 15.552ZM204.035 20.064V20.564H204.461L204.528 20.143L204.035 20.064ZM202.883 20.064L202.384 20.0973L202.415 20.564H202.883V20.064ZM199.203 18.432L199.467 18.8567L199.47 18.8547L199.203 18.432ZM197.519 20.4142L197.487 29.0862L198.487 29.0898L198.519 20.4178L197.519 20.4142ZM197.487 29.088C197.487 29.8306 197.705 30.4957 198.32 30.8371L198.805 29.9629C198.652 29.8776 198.487 29.6681 198.487 29.088H197.487ZM198.339 30.8472C198.796 31.0757 199.436 31.2341 200.222 31.3432L200.359 30.3528C199.609 30.2486 199.097 30.1083 198.786 29.9528L198.339 30.8472ZM200.224 31.3435C200.619 31.3969 200.925 31.4372 201.141 31.4641C201.333 31.4881 201.499 31.508 201.571 31.508V30.508C201.579 30.508 201.499 30.5012 201.265 30.4719C201.054 30.4455 200.752 30.4058 200.358 30.3525L200.224 31.3435ZM201.071 31.008V32H202.071V31.008H201.071ZM201.571 31.5H192.611V32.5H201.571V31.5ZM193.111 32V30.912H192.111V32H193.111ZM192.673 31.4081C193.19 31.3435 193.5 31.316 193.635 31.316V30.316C193.428 30.316 193.055 30.3525 192.549 30.4159L192.673 31.4081ZM193.697 31.3121C193.931 31.2829 194.191 31.2004 194.467 31.0855L194.082 30.1625C193.846 30.261 193.68 30.3065 193.573 30.3199L193.697 31.3121ZM194.484 31.078C194.634 31.0086 194.77 30.9376 194.88 30.864C194.973 30.8022 195.119 30.6938 195.202 30.5276L194.307 30.0804C194.32 30.0544 194.333 30.0363 194.342 30.0261C194.35 30.0157 194.356 30.01 194.357 30.009C194.358 30.0077 194.35 30.0156 194.325 30.032C194.276 30.0651 194.192 30.1114 194.065 30.17L194.484 31.078ZM195.219 30.4897C195.274 30.3508 195.345 30.1088 195.43 29.7928L194.464 29.5352C194.377 29.8592 194.32 30.0439 194.29 30.1183L195.219 30.4897ZM195.43 29.7928C195.526 29.4323 195.575 29.069 195.575 28.704H194.575C194.575 28.979 194.538 29.2557 194.464 29.5352L195.43 29.7928ZM195.575 28.704V26.176H194.575V28.704H195.575ZM195.575 26.176C195.575 24.03 195.556 22.323 195.518 21.0572C195.481 19.8087 195.425 18.9483 195.341 18.5259L194.36 18.7221C194.425 19.0463 194.481 19.818 194.519 21.0868C194.556 22.3383 194.575 24.034 194.575 26.176H195.575ZM195.34 18.5235C195.233 17.9985 194.971 17.5646 194.538 17.2731C194.117 16.9905 193.586 16.876 192.995 16.876V17.876C193.47 17.876 193.781 17.9695 193.98 18.1029C194.165 18.2274 194.298 18.4175 194.361 18.7245L195.34 18.5235ZM193.494 17.3497L193.43 16.1337L192.431 16.1863L192.495 17.4023L193.494 17.3497ZM192.98 16.6575C193.878 16.5677 194.793 16.3551 195.723 16.0229L195.386 15.0811C194.525 15.3889 193.69 15.5816 192.881 15.6625L192.98 16.6575ZM195.723 16.0229C196.165 15.8649 196.521 15.7492 196.792 15.6738C197.079 15.5941 197.229 15.572 197.283 15.572V14.572C197.08 14.572 196.814 14.6299 196.525 14.7102C196.221 14.7948 195.84 14.9191 195.386 15.0811L195.723 16.0229ZM197.283 15.572C197.305 15.572 197.316 15.5748 197.32 15.5759C197.322 15.5764 197.323 15.5768 197.323 15.5768C197.323 15.5767 197.323 15.5767 197.322 15.5766C197.322 15.5766 197.322 15.5765 197.322 15.5765C197.322 15.5765 197.322 15.5765 197.322 15.5765C197.322 15.5765 197.322 15.5765 197.322 15.5766C197.322 15.5766 197.323 15.5767 197.323 15.5769C197.323 15.5772 197.324 15.5777 197.325 15.5785C197.326 15.58 197.329 15.583 197.333 15.588C197.34 15.5981 197.352 15.6168 197.365 15.6483L198.288 15.2637C198.208 15.0704 198.084 14.8899 197.899 14.7595C197.711 14.6272 197.498 14.572 197.283 14.572V15.572ZM197.371 15.6629C197.394 15.7124 197.426 15.822 197.45 16.0205C197.474 16.2124 197.487 16.4601 197.487 16.768H198.487C198.487 16.4359 198.473 16.145 198.443 15.8995C198.414 15.6607 198.366 15.4343 198.282 15.2491L197.371 15.6629ZM197.487 16.7812L197.519 17.9972L198.518 17.9708L198.486 16.7548L197.487 16.7812ZM198.366 18.3436C199.29 17.4511 200.101 16.7979 200.799 16.3706C201.505 15.9392 202.054 15.764 202.467 15.764V14.764C201.791 14.764 201.055 15.0421 200.278 15.5174C199.494 15.9968 198.625 16.7036 197.671 17.6244L198.366 18.3436ZM202.467 15.764C202.843 15.764 203.146 15.7871 203.38 15.8284C203.619 15.8706 203.757 15.9268 203.828 15.9726L204.369 15.1314C204.142 14.9852 203.858 14.8974 203.554 14.8436C203.244 14.7889 202.879 14.764 202.467 14.764V15.764ZM203.828 15.9726C203.927 16.0358 204.047 16.1847 204.047 16.608H205.047C205.047 16.0073 204.868 15.4522 204.369 15.1314L203.828 15.9726ZM204.047 16.608C204.047 16.601 204.047 16.6147 204.041 16.667C204.037 16.7129 204.029 16.7755 204.019 16.856C203.998 17.0168 203.967 17.2399 203.924 17.5267C203.839 18.0998 203.711 18.9189 203.541 19.985L204.528 20.143C204.699 19.0757 204.827 18.2522 204.913 17.6733C204.956 17.3841 204.989 17.1539 205.011 16.984C205.03 16.8301 205.047 16.6899 205.047 16.608H204.047ZM204.035 19.564H202.883V20.564H204.035V19.564ZM203.382 20.0307C203.326 19.1939 203.153 18.49 202.808 17.9828C202.441 17.4436 201.904 17.164 201.251 17.164V18.164C201.579 18.164 201.804 18.2844 201.981 18.5452C202.18 18.838 202.333 19.3341 202.384 20.0973L203.382 20.0307ZM201.251 17.164C200.555 17.164 199.775 17.4791 198.936 18.0093L199.47 18.8547C200.252 18.3609 200.837 18.164 201.251 18.164V17.164ZM198.939 18.0074C198.023 18.5766 197.519 19.3884 197.519 20.416H198.519C198.519 19.7796 198.804 19.2688 199.467 18.8566L198.939 18.0074Z" fill="#E44D4E"/>
<g filter="url(#filter0_d_6_2)">
<path d="M28.6874 60H5.58344V57.644L12.7274 52.02V5.964L4.82344 3.304L6.34344 0.263999H29.4474V2.62L22.2274 8.244V54.224L30.2074 56.96L28.6874 60Z" fill="#E44D4E"/>
</g>
<defs>
<filter id="filter0_d_6_2" x="0.823441" y="0.264008" width="33.384" height="67.736" filterUnits="userSpaceOnUse" color-interpolation-filters="sRGB">
<feFlood flood-opacity="0" result="BackgroundImageFix"/>
<feColorMatrix in="SourceAlpha" type="matrix" values="0 0 0 0 0 0 0 0 0 0 0 0 0 0 0 0 0 0 127 0" result="hardAlpha"/>
<feOffset dy="4"/>
<feGaussianBlur stdDeviation="2"/>
<feComposite in2="hardAlpha" operator="out"/>
<feColorMatrix type="matrix" values="0 0 0 0 0 0 0 0 0 0 0 0 0 0 0 0 0 0 0.25 0"/>
<feBlend mode="normal" in2="BackgroundImageFix" result="effect1_dropShadow_6_2"/>
<feBlend mode="normal" in="SourceGraphic" in2="effect1_dropShadow_6_2" result="shape"/>
</filter>
</defs>
</svg>
