<svg width="16" height="16" viewBox="0 0 16 16" fill="none" xmlns="http://www.w3.org/2000/svg">
<ellipse cx="8" cy="8.47059" rx="8" ry="7.52941" fill="#ABABAB"/>
<path d="M8.04138 4.288C7.78538 4.288 7.57204 4.208 7.40138 4.048C7.24138 3.87733 7.16138 3.65867 7.16138 3.392C7.16138 3.136 7.24138 2.928 7.40138 2.768C7.57204 2.608 7.78538 2.528 8.04138 2.528C8.29738 2.528 8.50538 2.608 8.66538 2.768C8.83604 2.928 8.92138 3.136 8.92138 3.392C8.92138 3.65867 8.83604 3.87733 8.66538 4.048C8.50538 4.208 8.29738 4.288 8.04138 4.288ZM6.16938 6.512V6.08H8.71338V12.704C8.71338 13.0773 8.72938 13.296 8.76138 13.36C8.79338 13.424 8.89471 13.4667 9.06538 13.488L9.94538 13.584V14H6.16938V13.584L7.04938 13.488C7.22004 13.4667 7.32138 13.424 7.35338 13.36C7.38538 13.296 7.40138 13.0773 7.40138 12.704V7.376C7.40138 7.00267 7.38538 6.784 7.35338 6.72C7.32138 6.656 7.22004 6.61333 7.04938 6.592L6.16938 6.512Z" fill="#F1F1F1"/>
</svg>
